<svg width="123" height="97" viewBox="0 0 123 97" fill="none" xmlns="http://www.w3.org/2000/svg">
<rect width="123" height="97" rx="13.2273" fill="#202021"/>
<path d="M13.3138 12.477V20H12.3166V12.477H13.3138ZM15.9386 15.603V20H14.9828V14.4094H15.887L15.9386 15.603ZM15.7113 16.9929L15.3134 16.9774C15.3169 16.595 15.3737 16.2419 15.4839 15.9181C15.5942 15.5909 15.7492 15.3067 15.949 15.0656C16.1488 14.8245 16.3864 14.6385 16.662 14.5076C16.941 14.3732 17.2493 14.3061 17.5869 14.3061C17.8624 14.3061 18.1105 14.344 18.3309 14.4197C18.5514 14.4921 18.7391 14.6092 18.8941 14.7711C19.0526 14.933 19.1731 15.1431 19.2558 15.4015C19.3385 15.6564 19.3798 15.9681 19.3798 16.3367V20H18.4187V16.3263C18.4187 16.0335 18.3757 15.7993 18.2896 15.6236C18.2035 15.4445 18.0777 15.3153 17.9124 15.2361C17.7471 15.1534 17.5438 15.1121 17.3027 15.1121C17.065 15.1121 16.848 15.1621 16.6517 15.2619C16.4588 15.3618 16.2917 15.4996 16.1505 15.6753C16.0127 15.851 15.9042 16.0525 15.825 16.2798C15.7492 16.5037 15.7113 16.7414 15.7113 16.9929ZM23.069 19.318C23.2963 19.318 23.5064 19.2715 23.6993 19.1785C23.8922 19.0855 24.0507 18.958 24.1747 18.7961C24.2987 18.6308 24.3693 18.443 24.3865 18.2329H25.2959C25.2787 18.5636 25.1667 18.8719 24.96 19.1578C24.7568 19.4403 24.4899 19.6693 24.1592 19.845C23.8285 20.0172 23.4651 20.1033 23.069 20.1033C22.6487 20.1033 22.2819 20.0293 21.9684 19.8812C21.6584 19.733 21.4001 19.5298 21.1934 19.2715C20.9901 19.0131 20.8369 18.7169 20.7335 18.3828C20.6336 18.0452 20.5837 17.6887 20.5837 17.3132V17.0962C20.5837 16.7207 20.6336 16.3659 20.7335 16.0318C20.8369 15.6942 20.9901 15.3963 21.1934 15.1379C21.4001 14.8796 21.6584 14.6764 21.9684 14.5282C22.2819 14.3801 22.6487 14.3061 23.069 14.3061C23.5064 14.3061 23.8888 14.3956 24.216 14.5748C24.5433 14.7504 24.7999 14.9915 24.9859 15.2981C25.1753 15.6012 25.2787 15.9457 25.2959 16.3315H24.3865C24.3693 16.1007 24.3039 15.8923 24.1902 15.7063C24.08 15.5203 23.9284 15.3722 23.7355 15.2619C23.546 15.1483 23.3239 15.0914 23.069 15.0914C22.7762 15.0914 22.5299 15.15 22.3301 15.2671C22.1338 15.3808 21.977 15.5358 21.8599 15.7321C21.7462 15.925 21.6636 16.1403 21.6119 16.378C21.5637 16.6122 21.5396 16.8516 21.5396 17.0962V17.3132C21.5396 17.5578 21.5637 17.7989 21.6119 18.0366C21.6601 18.2743 21.7411 18.4895 21.8547 18.6824C21.9719 18.8753 22.1286 19.0303 22.3249 19.1475C22.5247 19.2611 22.7727 19.318 23.069 19.318ZM26.1174 17.2667V17.1479C26.1174 16.7449 26.176 16.3711 26.2931 16.0267C26.4102 15.6787 26.579 15.3773 26.7995 15.1224C27.0199 14.8641 27.2869 14.6643 27.6003 14.5231C27.9138 14.3784 28.2651 14.3061 28.6544 14.3061C29.0471 14.3061 29.4001 14.3784 29.7136 14.5231C30.0305 14.6643 30.2992 14.8641 30.5196 15.1224C30.7435 15.3773 30.914 15.6787 31.0312 16.0267C31.1483 16.3711 31.2068 16.7449 31.2068 17.1479V17.2667C31.2068 17.6697 31.1483 18.0435 31.0312 18.3879C30.914 18.7324 30.7435 19.0338 30.5196 19.2921C30.2992 19.547 30.0322 19.7468 29.7188 19.8915C29.4088 20.0327 29.0574 20.1033 28.6647 20.1033C28.272 20.1033 27.919 20.0327 27.6055 19.8915C27.292 19.7468 27.0234 19.547 26.7995 19.2921C26.579 19.0338 26.4102 18.7324 26.2931 18.3879C26.176 18.0435 26.1174 17.6697 26.1174 17.2667ZM27.0733 17.1479V17.2667C27.0733 17.5457 27.106 17.8092 27.1715 18.0572C27.2369 18.3018 27.3351 18.5188 27.466 18.7083C27.6003 18.8977 27.7674 19.0476 27.9672 19.1578C28.167 19.2646 28.3995 19.318 28.6647 19.318C28.9265 19.318 29.1556 19.2646 29.3519 19.1578C29.5517 19.0476 29.717 18.8977 29.8479 18.7083C29.9788 18.5188 30.077 18.3018 30.1425 18.0572C30.2113 17.8092 30.2458 17.5457 30.2458 17.2667V17.1479C30.2458 16.8723 30.2113 16.6122 30.1425 16.3677C30.077 16.1197 29.9771 15.9009 29.8428 15.7115C29.7119 15.5186 29.5465 15.367 29.3467 15.2568C29.1504 15.1466 28.9196 15.0914 28.6544 15.0914C28.3926 15.0914 28.1618 15.1466 27.962 15.2568C27.7657 15.367 27.6003 15.5186 27.466 15.7115C27.3351 15.9009 27.2369 16.1197 27.1715 16.3677C27.106 16.6122 27.0733 16.8723 27.0733 17.1479ZM33.3563 15.5203V20H32.3952V14.4094H33.3046L33.3563 15.5203ZM33.1599 16.9929L32.7156 16.9774C32.719 16.595 32.769 16.2419 32.8654 15.9181C32.9619 15.5909 33.1048 15.3067 33.2943 15.0656C33.4837 14.8245 33.7197 14.6385 34.0021 14.5076C34.2846 14.3732 34.6118 14.3061 34.9838 14.3061C35.2456 14.3061 35.4868 14.344 35.7072 14.4197C35.9277 14.4921 36.1188 14.6075 36.2807 14.7659C36.4426 14.9244 36.5684 15.1276 36.6579 15.3756C36.7475 15.6236 36.7923 15.9233 36.7923 16.2747V20H35.8364V16.3212C35.8364 16.0284 35.7864 15.7941 35.6865 15.6185C35.5901 15.4428 35.4523 15.3153 35.2732 15.2361C35.0941 15.1534 34.8839 15.1121 34.6428 15.1121C34.3604 15.1121 34.1244 15.1621 33.935 15.2619C33.7455 15.3618 33.5939 15.4996 33.4803 15.6753C33.3666 15.851 33.2839 16.0525 33.2323 16.2798C33.184 16.5037 33.1599 16.7414 33.1599 16.9929ZM36.7819 16.4658L36.1412 16.6622C36.1447 16.3556 36.1946 16.0611 36.2911 15.7786C36.391 15.4962 36.5339 15.2447 36.7199 15.0243C36.9094 14.8038 37.1419 14.6299 37.4175 14.5024C37.693 14.3715 38.0082 14.3061 38.363 14.3061C38.6627 14.3061 38.9279 14.3457 39.1587 14.4249C39.3929 14.5041 39.5893 14.6264 39.7477 14.7918C39.9096 14.9537 40.0319 15.1621 40.1146 15.417C40.1972 15.6719 40.2386 15.975 40.2386 16.3263V20H39.2775V16.316C39.2775 16.0025 39.2276 15.7597 39.1277 15.5875C39.0312 15.4118 38.8935 15.2895 38.7143 15.2206C38.5387 15.1483 38.3285 15.1121 38.084 15.1121C37.8739 15.1121 37.6879 15.1483 37.526 15.2206C37.3641 15.293 37.228 15.3928 37.1178 15.5203C37.0075 15.6443 36.9232 15.7873 36.8646 15.9491C36.8095 16.111 36.7819 16.2833 36.7819 16.4658ZM42.7239 14.4094V20H41.7628V14.4094H42.7239ZM41.6905 12.9265C41.6905 12.7715 41.737 12.6406 41.83 12.5338C41.9264 12.427 42.0677 12.3737 42.2537 12.3737C42.4362 12.3737 42.5757 12.427 42.6722 12.5338C42.7721 12.6406 42.822 12.7715 42.822 12.9265C42.822 13.0746 42.7721 13.2021 42.6722 13.3089C42.5757 13.4122 42.4362 13.4639 42.2537 13.4639C42.0677 13.4639 41.9264 13.4122 41.83 13.3089C41.737 13.2021 41.6905 13.0746 41.6905 12.9265ZM45.2143 15.603V20H44.2584V14.4094H45.1626L45.2143 15.603ZM44.987 16.9929L44.5891 16.9774C44.5926 16.595 44.6494 16.2419 44.7596 15.9181C44.8698 15.5909 45.0249 15.3067 45.2246 15.0656C45.4244 14.8245 45.6621 14.6385 45.9377 14.5076C46.2167 14.3732 46.525 14.3061 46.8626 14.3061C47.1381 14.3061 47.3861 14.344 47.6066 14.4197C47.827 14.4921 48.0148 14.6092 48.1698 14.7711C48.3282 14.933 48.4488 15.1431 48.5315 15.4015C48.6141 15.6564 48.6555 15.9681 48.6555 16.3367V20H47.6944V16.3263C47.6944 16.0335 47.6514 15.7993 47.5653 15.6236C47.4791 15.4445 47.3534 15.3153 47.1881 15.2361C47.0227 15.1534 46.8195 15.1121 46.5784 15.1121C46.3407 15.1121 46.1237 15.1621 45.9273 15.2619C45.7344 15.3618 45.5674 15.4996 45.4262 15.6753C45.2884 15.851 45.1799 16.0525 45.1006 16.2798C45.0249 16.5037 44.987 16.7414 44.987 16.9929ZM53.7294 14.4094H54.5974V19.8812C54.5974 20.3737 54.4975 20.794 54.2977 21.1419C54.0979 21.4898 53.8189 21.7533 53.4607 21.9324C53.1059 22.115 52.696 22.2063 52.231 22.2063C52.0381 22.2063 51.8107 22.1753 51.5489 22.1133C51.2906 22.0547 51.0357 21.9531 50.7842 21.8084C50.5362 21.6672 50.3278 21.476 50.159 21.2349L50.6602 20.6665C50.8945 20.949 51.139 21.1453 51.3939 21.2556C51.6523 21.3658 51.9072 21.4209 52.1586 21.4209C52.4618 21.4209 52.7235 21.3641 52.944 21.2504C53.1645 21.1367 53.335 20.9679 53.4555 20.744C53.5795 20.5236 53.6415 20.2515 53.6415 19.9277V15.6391L53.7294 14.4094ZM49.88 17.2667V17.1582C49.88 16.7311 49.93 16.3436 50.0299 15.9957C50.1332 15.6443 50.2796 15.3429 50.4691 15.0914C50.6619 14.84 50.8945 14.6471 51.1666 14.5127C51.4387 14.375 51.7453 14.3061 52.0863 14.3061C52.4376 14.3061 52.7442 14.3681 53.006 14.4921C53.2712 14.6126 53.4951 14.79 53.6777 15.0243C53.8637 15.2551 54.0101 15.5341 54.1169 15.8613C54.2237 16.1885 54.2977 16.5588 54.3391 16.9722V17.4475C54.3012 17.8575 54.2271 18.226 54.1169 18.5533C54.0101 18.8805 53.8637 19.1595 53.6777 19.3903C53.4951 19.6211 53.2712 19.7985 53.006 19.9225C52.7408 20.0431 52.4308 20.1033 52.076 20.1033C51.7418 20.1033 51.4387 20.0327 51.1666 19.8915C50.8979 19.7503 50.6671 19.5522 50.4742 19.2973C50.2813 19.0424 50.1332 18.7427 50.0299 18.3983C49.93 18.0504 49.88 17.6732 49.88 17.2667ZM50.8359 17.1582V17.2667C50.8359 17.5457 50.8635 17.8075 50.9186 18.0521C50.9771 18.2966 51.065 18.5119 51.1821 18.6979C51.3026 18.8839 51.4559 19.0303 51.6419 19.1371C51.8279 19.2405 52.0501 19.2921 52.3085 19.2921C52.6254 19.2921 52.8872 19.225 53.0938 19.0906C53.3005 18.9563 53.4641 18.7789 53.5847 18.5584C53.7087 18.338 53.8051 18.0986 53.874 17.8402V16.595C53.8361 16.4056 53.7776 16.223 53.6984 16.0473C53.6226 15.8682 53.5227 15.7097 53.3987 15.572C53.2781 15.4307 53.1283 15.3188 52.9492 15.2361C52.77 15.1534 52.5599 15.1121 52.3188 15.1121C52.057 15.1121 51.8314 15.1672 51.6419 15.2775C51.4559 15.3842 51.3026 15.5324 51.1821 15.7218C51.065 15.9078 50.9771 16.1248 50.9186 16.3728C50.8635 16.6174 50.8359 16.8792 50.8359 17.1582Z" fill="white"/>
<path d="M55.4713 50.0693C46.8377 42.9417 27.8735 34.4637 21.0857 57.5719V91.7091H101.914L100.575 25.6854C96.1089 25.0602 86.0165 26.7358 81.3722 38.44L75.1202 50.0693C73.4828 53.0703 67.2607 57.2717 55.4713 50.0693Z" fill="url(#paint0_linear_2_248)"/>
<path d="M21.0857 57.5728C27.8317 34.4639 46.6793 42.9422 55.2598 50.0699C66.9767 57.2725 73.1606 53.071 74.7879 50.0699L81.0014 38.4403C85.6171 26.7358 95.6475 25.0602 100.086 25.6854" stroke="#5C63EB" stroke-width="0.881818" stroke-linecap="round"/>
<path d="M56.0535 79.3737V80.1978H51.3266V79.3737H56.0535ZM54.1305 77.3607V82.3813H53.2543V77.3607H54.1305ZM62.0591 75.0589V76.5035H61.3487V75.0589H62.0591ZM61.9739 82.7933V84.0579H61.2682V82.7933H61.9739ZM62.9211 81.2966C62.9211 81.1072 62.8785 80.9367 62.7933 80.7851C62.708 80.6335 62.5675 80.4946 62.3717 80.3683C62.176 80.242 61.9139 80.1252 61.5855 80.0178C61.1877 79.8947 60.8435 79.7447 60.553 79.5679C60.2656 79.391 60.043 79.1716 59.8852 78.9095C59.7304 78.6474 59.6531 78.3301 59.6531 77.9575C59.6531 77.5691 59.7368 77.2344 59.9041 76.9534C60.0715 76.6724 60.3083 76.4561 60.6146 76.3045C60.9208 76.153 61.2808 76.0772 61.6944 76.0772C62.0165 76.0772 62.3038 76.1261 62.5565 76.224C62.8091 76.3188 63.0222 76.4608 63.1959 76.6503C63.3727 76.8397 63.5069 77.0718 63.5984 77.3465C63.6932 77.6212 63.7405 77.9386 63.7405 78.2985H62.869C62.869 78.087 62.8438 77.8928 62.7933 77.716C62.7427 77.5391 62.667 77.386 62.5659 77.2565C62.4649 77.1239 62.3417 77.0229 62.1965 76.9534C62.0512 76.8808 61.8839 76.8445 61.6944 76.8445C61.4292 76.8445 61.2098 76.8903 61.0361 76.9818C60.8656 77.0734 60.7393 77.2029 60.6572 77.3702C60.5751 77.5344 60.534 77.7254 60.534 77.9433C60.534 78.1454 60.5751 78.3222 60.6572 78.4738C60.7393 78.6253 60.8782 78.7627 61.074 78.8858C61.2729 79.0058 61.546 79.1242 61.8934 79.2411C62.3007 79.3705 62.6464 79.5237 62.9306 79.7005C63.2148 79.8742 63.4311 80.0889 63.5795 80.3446C63.7279 80.5972 63.8021 80.9114 63.8021 81.2872C63.8021 81.6945 63.7105 82.0387 63.5274 82.3197C63.3443 82.5975 63.0869 82.8091 62.7554 82.9543C62.4238 83.0996 62.0355 83.1722 61.5902 83.1722C61.3218 83.1722 61.0566 83.1359 60.7945 83.0633C60.5325 82.9907 60.2956 82.8722 60.0841 82.7081C59.8725 82.5407 59.7036 82.3213 59.5773 82.0497C59.451 81.775 59.3878 81.4387 59.3878 81.0409H60.2688C60.2688 81.3093 60.3067 81.5319 60.3825 81.7087C60.4614 81.8824 60.5656 82.0213 60.6951 82.1255C60.8245 82.2265 60.9666 82.2992 61.1213 82.3434C61.2792 82.3844 61.4355 82.4049 61.5902 82.4049C61.8744 82.4049 62.1144 82.3607 62.3102 82.2723C62.5091 82.1807 62.6607 82.0513 62.7648 81.8839C62.869 81.7166 62.9211 81.5208 62.9211 81.2966ZM69.5567 80.752V81.4719H64.5741V80.9556L67.6622 76.1767H68.3774L67.6101 77.5597L65.5688 80.752H69.5567ZM68.5953 76.1767V83.0728H67.719V76.1767H68.5953ZM74.8709 82.3528V83.0728H70.3572V82.4428L72.6164 79.9278C72.8943 79.6184 73.109 79.3563 73.2606 79.1416C73.4153 78.9237 73.5226 78.7295 73.5826 78.559C73.6458 78.3854 73.6773 78.2085 73.6773 78.0286C73.6773 77.8012 73.63 77.596 73.5353 77.4128C73.4437 77.2265 73.3079 77.0781 73.1279 76.9676C72.948 76.8571 72.7301 76.8019 72.4743 76.8019C72.168 76.8019 71.9123 76.8618 71.707 76.9818C71.505 77.0987 71.3534 77.2629 71.2523 77.4744C71.1513 77.686 71.1008 77.9291 71.1008 78.2038H70.2246C70.2246 77.8154 70.3098 77.4602 70.4803 77.1381C70.6508 76.8161 70.9034 76.5603 71.2381 76.3708C71.5728 76.1782 71.9849 76.0819 72.4743 76.0819C72.9101 76.0819 73.2827 76.1593 73.5921 76.314C73.9015 76.4656 74.1384 76.6803 74.3025 76.9582C74.4699 77.2329 74.5536 77.5549 74.5536 77.9244C74.5536 78.1264 74.5188 78.3317 74.4494 78.5401C74.3831 78.7453 74.2899 78.9506 74.1699 79.1558C74.0531 79.3611 73.9157 79.5631 73.7579 79.7621C73.6031 79.961 73.4374 80.1568 73.2606 80.3494L71.4134 82.3528H74.8709ZM80.4692 80.752V81.4719H75.4866V80.9556L78.5747 76.1767H79.2899L78.5226 77.5597L76.4813 80.752H80.4692ZM79.5078 76.1767V83.0728H78.6315V76.1767H79.5078ZM82.3732 79.7905L81.6723 79.6105L82.018 76.1767H85.5561V76.9866H82.7616L82.5532 78.8622C82.6795 78.7895 82.839 78.7216 83.0316 78.6585C83.2274 78.5953 83.4516 78.5638 83.7042 78.5638C84.0231 78.5638 84.3088 78.619 84.5614 78.7295C84.814 78.8369 85.0287 78.9916 85.2056 79.1937C85.3856 79.3958 85.5229 79.6389 85.6176 79.9231C85.7124 80.2073 85.7597 80.5246 85.7597 80.8751C85.7597 81.2066 85.7139 81.5113 85.6224 81.7892C85.534 82.0671 85.3998 82.3102 85.2198 82.5186C85.0398 82.7238 84.8125 82.8833 84.5377 82.997C84.2662 83.1106 83.9457 83.1675 83.5763 83.1675C83.2984 83.1675 83.0348 83.1296 82.7853 83.0538C82.539 82.9749 82.318 82.8565 82.1222 82.6986C81.9296 82.5375 81.7717 82.3386 81.6486 82.1018C81.5286 81.8618 81.4528 81.5808 81.4212 81.2587H82.2548C82.2927 81.5177 82.3685 81.7355 82.4822 81.9124C82.5959 82.0892 82.7443 82.2234 82.9274 82.3149C83.1137 82.4034 83.33 82.4476 83.5763 82.4476C83.7847 82.4476 83.9694 82.4112 84.1304 82.3386C84.2915 82.266 84.4272 82.1618 84.5377 82.026C84.6483 81.8903 84.7319 81.7261 84.7888 81.5334C84.8488 81.3408 84.8788 81.1245 84.8788 80.8846C84.8788 80.6667 84.8488 80.4646 84.7888 80.2783C84.7288 80.092 84.6388 79.9294 84.5188 79.7905C84.402 79.6515 84.2583 79.5442 84.0878 79.4684C83.9173 79.3895 83.7215 79.35 83.5005 79.35C83.2068 79.35 82.9842 79.3895 82.8327 79.4684C82.6843 79.5473 82.5311 79.6547 82.3732 79.7905ZM86.8301 82.6086C86.8301 82.4602 86.8759 82.3355 86.9675 82.2344C87.0622 82.1302 87.198 82.0781 87.3748 82.0781C87.5516 82.0781 87.6858 82.1302 87.7774 82.2344C87.8721 82.3355 87.9195 82.4602 87.9195 82.6086C87.9195 82.7538 87.8721 82.877 87.7774 82.978C87.6858 83.0791 87.5516 83.1296 87.3748 83.1296C87.198 83.1296 87.0622 83.0791 86.9675 82.978C86.8759 82.877 86.8301 82.7538 86.8301 82.6086ZM92.6416 76.1672H92.7174V76.9108H92.6416C92.1774 76.9108 91.7891 76.9866 91.4765 77.1381C91.1639 77.2865 90.916 77.487 90.7329 77.7396C90.5497 77.9891 90.4171 78.2701 90.335 78.5827C90.2561 78.8953 90.2166 79.2126 90.2166 79.5347V80.5483C90.2166 80.8546 90.2529 81.1261 90.3255 81.3629C90.3982 81.5966 90.4976 81.7939 90.6239 81.955C90.7502 82.116 90.8923 82.2376 91.0502 82.3197C91.2112 82.4018 91.3786 82.4428 91.5523 82.4428C91.7543 82.4428 91.9343 82.4049 92.0922 82.3292C92.2501 82.2502 92.3827 82.1413 92.49 82.0023C92.6006 81.8603 92.6842 81.6929 92.7411 81.5003C92.7979 81.3077 92.8263 81.0961 92.8263 80.8656C92.8263 80.6604 92.8011 80.463 92.7505 80.2736C92.7 80.081 92.6227 79.9105 92.5185 79.7621C92.4143 79.6105 92.2832 79.4921 92.1253 79.4068C91.9706 79.3184 91.7859 79.2742 91.5712 79.2742C91.3281 79.2742 91.1007 79.3342 90.8892 79.4542C90.6808 79.571 90.5087 79.7257 90.3729 79.9184C90.2403 80.1078 90.1645 80.3146 90.1456 80.5388L89.6814 80.5341C89.7256 80.1804 89.8077 79.8789 89.9277 79.6294C90.0508 79.3768 90.2024 79.1716 90.3824 79.0137C90.5655 78.8527 90.7692 78.7359 90.9934 78.6632C91.2207 78.5875 91.4607 78.5496 91.7133 78.5496C92.0575 78.5496 92.3543 78.6143 92.6037 78.7438C92.8532 78.8732 93.0584 79.0469 93.2194 79.2647C93.3805 79.4795 93.4989 79.7226 93.5747 79.9941C93.6536 80.2625 93.6931 80.5388 93.6931 80.823C93.6931 81.1482 93.6473 81.4529 93.5557 81.7371C93.4641 82.0213 93.3268 82.2707 93.1437 82.4854C92.9637 82.7002 92.7411 82.8675 92.4758 82.9875C92.2106 83.1075 91.9027 83.1675 91.5523 83.1675C91.1797 83.1675 90.8544 83.0917 90.5766 82.9401C90.2987 82.7854 90.0682 82.5802 89.8851 82.3244C89.7019 82.0687 89.5646 81.7845 89.473 81.4719C89.3814 81.1593 89.3357 80.8419 89.3357 80.5199V80.1078C89.3357 79.6215 89.3846 79.1448 89.4825 78.6774C89.5804 78.2101 89.7493 77.787 89.9893 77.4081C90.2324 77.0292 90.5687 76.7277 90.9981 76.5035C91.4275 76.2793 91.9754 76.1672 92.6416 76.1672ZM95.8434 79.7905L95.1424 79.6105L95.4881 76.1767H99.0262V76.9866H96.2317L96.0233 78.8622C96.1496 78.7895 96.3091 78.7216 96.5017 78.6585C96.6975 78.5953 96.9217 78.5638 97.1743 78.5638C97.4932 78.5638 97.7789 78.619 98.0315 78.7295C98.2842 78.8369 98.4989 78.9916 98.6757 79.1937C98.8557 79.3958 98.993 79.6389 99.0877 79.9231C99.1825 80.2073 99.2298 80.5246 99.2298 80.8751C99.2298 81.2066 99.1841 81.5113 99.0925 81.7892C99.0041 82.0671 98.8699 82.3102 98.6899 82.5186C98.5099 82.7238 98.2826 82.8833 98.0079 82.997C97.7363 83.1106 97.4158 83.1675 97.0464 83.1675C96.7685 83.1675 96.5049 83.1296 96.2554 83.0538C96.0091 82.9749 95.7881 82.8565 95.5923 82.6986C95.3997 82.5375 95.2419 82.3386 95.1187 82.1018C94.9987 81.8618 94.9229 81.5808 94.8914 81.2587H95.725C95.7628 81.5177 95.8386 81.7355 95.9523 81.9124C96.066 82.0892 96.2144 82.2234 96.3975 82.3149C96.5838 82.4034 96.8001 82.4476 97.0464 82.4476C97.2548 82.4476 97.4395 82.4112 97.6005 82.3386C97.7616 82.266 97.8974 82.1618 98.0079 82.026C98.1184 81.8903 98.2021 81.7261 98.2589 81.5334C98.3189 81.3408 98.3489 81.1245 98.3489 80.8846C98.3489 80.6667 98.3189 80.4646 98.2589 80.2783C98.1989 80.092 98.1089 79.9294 97.9889 79.7905C97.8721 79.6515 97.7284 79.5442 97.5579 79.4684C97.3874 79.3895 97.1916 79.35 96.9706 79.35C96.677 79.35 96.4544 79.3895 96.3028 79.4684C96.1544 79.5473 96.0012 79.6547 95.8434 79.7905Z" fill="white"/>
<ellipse cx="98.4" cy="25.5727" rx="2.63571" ry="2.64545" fill="#5A65E9"/>
<defs>
<linearGradient id="paint0_linear_2_248" x1="61.5" y1="25.5728" x2="61.9377" y2="84.2137" gradientUnits="userSpaceOnUse">
<stop stop-color="#5B64EA" stop-opacity="0.63"/>
<stop offset="1" stop-color="#1F1E1F" stop-opacity="0.26"/>
</linearGradient>
</defs>
</svg>
