<svg width="124" height="97" viewBox="0 0 124 97" fill="none" xmlns="http://www.w3.org/2000/svg">
<rect x="0.371094" y="0.962891" width="123" height="96" rx="13.2167" fill="#202021"/>
<path d="M18.031 15.004V15.479C18.031 16.0435 17.9605 16.5494 17.8194 16.9969C17.6783 17.4443 17.4752 17.8246 17.2102 18.1378C16.9451 18.451 16.6268 18.6902 16.2551 18.8554C15.8868 19.0207 15.4738 19.1033 15.016 19.1033C14.572 19.1033 14.1641 19.0207 13.7924 18.8554C13.4241 18.6902 13.1041 18.451 12.8322 18.1378C12.5637 17.8246 12.3555 17.4443 12.2075 16.9969C12.0595 16.5494 11.9855 16.0435 11.9855 15.479V15.004C11.9855 14.4396 12.0577 13.9353 12.2023 13.4913C12.3503 13.0439 12.5585 12.6636 12.827 12.3504C13.0955 12.0337 13.4138 11.7928 13.7821 11.6276C14.1538 11.4624 14.5617 11.3798 15.0057 11.3798C15.4634 11.3798 15.8765 11.4624 16.2447 11.6276C16.6165 11.7928 16.9348 12.0337 17.1998 12.3504C17.4683 12.6636 17.6731 13.0439 17.8142 13.4913C17.9588 13.9353 18.031 14.4396 18.031 15.004ZM17.045 15.479V14.9937C17.045 14.5463 16.9985 14.1505 16.9056 13.8063C16.8161 13.4621 16.6836 13.173 16.508 12.9389C16.3325 12.7049 16.1174 12.5276 15.8627 12.4072C15.6114 12.2867 15.3258 12.2265 15.0057 12.2265C14.6959 12.2265 14.4154 12.2867 14.1641 12.4072C13.9163 12.5276 13.7029 12.7049 13.524 12.9389C13.3484 13.173 13.2125 13.4621 13.1161 13.8063C13.0197 14.1505 12.9715 14.5463 12.9715 14.9937V15.479C12.9715 15.9299 13.0197 16.3291 13.1161 16.6768C13.2125 17.0209 13.3502 17.3118 13.5291 17.5493C13.7115 17.7833 13.9267 17.9606 14.1745 18.081C14.4257 18.2015 14.7062 18.2617 15.016 18.2617C15.3395 18.2617 15.6269 18.2015 15.8782 18.081C16.1294 17.9606 16.3411 17.7833 16.5132 17.5493C16.6887 17.3118 16.8212 17.0209 16.9107 16.6768C17.0002 16.3291 17.045 15.9299 17.045 15.479ZM22.7963 17.7093V13.4139H23.7565V19H22.8427L22.7963 17.7093ZM22.977 16.5322L23.3745 16.5219C23.3745 16.8936 23.3349 17.2378 23.2558 17.5544C23.18 17.8676 23.0561 18.1395 22.884 18.3701C22.7119 18.6007 22.4865 18.7814 22.2077 18.9122C21.9289 19.0396 21.5899 19.1033 21.1907 19.1033C20.9188 19.1033 20.6692 19.0637 20.4421 18.9845C20.2183 18.9053 20.0256 18.7832 19.8638 18.618C19.7021 18.4527 19.5764 18.2376 19.4869 17.9726C19.4009 17.7076 19.3579 17.3892 19.3579 17.0175V13.4139H20.313V17.0278C20.313 17.2791 20.3405 17.4873 20.3956 17.6525C20.4541 17.8143 20.5315 17.9434 20.6279 18.0397C20.7277 18.1327 20.8379 18.1981 20.9583 18.2359C21.0822 18.2738 21.2096 18.2927 21.3404 18.2927C21.7465 18.2927 22.0683 18.2153 22.3058 18.0604C22.5433 17.9021 22.7137 17.6904 22.8169 17.4254C22.9236 17.1569 22.977 16.8592 22.977 16.5322ZM27.5512 13.4139V14.147H24.531V13.4139H27.5512ZM25.5532 12.0561H26.5083V17.6164C26.5083 17.8057 26.5376 17.9485 26.5961 18.0449C26.6546 18.1413 26.7303 18.2049 26.8232 18.2359C26.9162 18.2669 27.016 18.2824 27.1227 18.2824C27.2018 18.2824 27.2844 18.2755 27.3705 18.2617C27.46 18.2445 27.5271 18.2307 27.5718 18.2204L27.577 19C27.5013 19.0241 27.4015 19.0465 27.2775 19.0671C27.1571 19.0912 27.0108 19.1033 26.8387 19.1033C26.6047 19.1033 26.3896 19.0568 26.1934 18.9639C25.9972 18.8709 25.8406 18.716 25.7236 18.4992C25.61 18.2789 25.5532 17.9829 25.5532 17.6112V12.0561ZM32.2906 13.4139H33.1579V18.8813C33.1579 19.3734 33.0581 19.7933 32.8585 20.141C32.6589 20.4886 32.3801 20.7519 32.0221 20.9309C31.6676 21.1133 31.258 21.2045 30.7934 21.2045C30.6006 21.2045 30.3735 21.1735 30.1119 21.1116C29.8538 21.0531 29.5991 20.9515 29.3478 20.807C29.1 20.6658 28.8918 20.4748 28.7231 20.2339L29.2239 19.666C29.458 19.9482 29.7023 20.1444 29.957 20.2545C30.2152 20.3647 30.4699 20.4198 30.7211 20.4198C31.024 20.4198 31.2856 20.363 31.5058 20.2494C31.7261 20.1358 31.8965 19.9672 32.017 19.7434C32.1409 19.5232 32.2028 19.2513 32.2028 18.9277V14.6426L32.2906 13.4139ZM28.4443 16.2689V16.1605C28.4443 15.7337 28.4942 15.3465 28.594 14.9989C28.6973 14.6478 28.8436 14.3466 29.0329 14.0954C29.2256 13.8441 29.458 13.6514 29.7299 13.5172C30.0018 13.3795 30.3081 13.3106 30.6488 13.3106C30.9999 13.3106 31.3062 13.3726 31.5678 13.4965C31.8328 13.617 32.0565 13.7942 32.239 14.0283C32.4248 14.2589 32.5711 14.5377 32.6778 14.8646C32.7845 15.1916 32.8585 15.5616 32.8998 15.9746V16.4496C32.8619 16.8592 32.7879 17.2275 32.6778 17.5544C32.5711 17.8814 32.4248 18.1602 32.239 18.3908C32.0565 18.6214 31.8328 18.7987 31.5678 18.9226C31.3028 19.043 30.993 19.1033 30.6385 19.1033C30.3046 19.1033 30.0018 19.0327 29.7299 18.8916C29.4614 18.7505 29.2308 18.5526 29.038 18.2979C28.8453 18.0432 28.6973 17.7437 28.594 17.3995C28.4942 17.0519 28.4443 16.675 28.4443 16.2689ZM29.3994 16.1605V16.2689C29.3994 16.5477 29.427 16.8093 29.482 17.0536C29.5406 17.298 29.6283 17.5131 29.7453 17.699C29.8658 17.8848 30.019 18.0311 30.2048 18.1378C30.3907 18.2411 30.6127 18.2927 30.8708 18.2927C31.1875 18.2927 31.4491 18.2256 31.6556 18.0914C31.8621 17.9571 32.0256 17.7799 32.146 17.5596C32.2699 17.3393 32.3663 17.1001 32.4351 16.842V15.5977C32.3973 15.4084 32.3388 15.226 32.2596 15.0505C32.1839 14.8715 32.0841 14.7132 31.9602 14.5755C31.8397 14.4344 31.69 14.3225 31.511 14.2399C31.332 14.1573 31.1221 14.116 30.8812 14.116C30.6196 14.116 30.3941 14.1711 30.2048 14.2812C30.019 14.3879 29.8658 14.5359 29.7453 14.7252C29.6283 14.9111 29.5406 15.1279 29.482 15.3757C29.427 15.6201 29.3994 15.8817 29.3994 16.1605ZM34.3557 16.2689V16.1502C34.3557 15.7475 34.4142 15.374 34.5312 15.0298C34.6482 14.6822 34.8169 14.3811 35.0372 14.1264C35.2574 13.8682 35.5242 13.6686 35.8374 13.5275C36.1506 13.3829 36.5017 13.3106 36.8906 13.3106C37.283 13.3106 37.6358 13.3829 37.949 13.5275C38.2656 13.6686 38.5341 13.8682 38.7544 14.1264C38.9781 14.3811 39.1484 14.6822 39.2655 15.0298C39.3825 15.374 39.441 15.7475 39.441 16.1502V16.2689C39.441 16.6716 39.3825 17.045 39.2655 17.3892C39.1484 17.7334 38.9781 18.0346 38.7544 18.2927C38.5341 18.5474 38.2673 18.747 37.9541 18.8916C37.6444 19.0327 37.2933 19.1033 36.9009 19.1033C36.5086 19.1033 36.1558 19.0327 35.8426 18.8916C35.5294 18.747 35.2609 18.5474 35.0372 18.2927C34.8169 18.0346 34.6482 17.7334 34.5312 17.3892C34.4142 17.045 34.3557 16.6716 34.3557 16.2689ZM35.3108 16.1502V16.2689C35.3108 16.5477 35.3435 16.811 35.4089 17.0588C35.4743 17.3032 35.5724 17.52 35.7032 17.7093C35.8374 17.8986 36.0043 18.0483 36.204 18.1585C36.4036 18.2652 36.6359 18.3185 36.9009 18.3185C37.1625 18.3185 37.3914 18.2652 37.5876 18.1585C37.7872 18.0483 37.9524 17.8986 38.0832 17.7093C38.214 17.52 38.3121 17.3032 38.3775 17.0588C38.4463 16.811 38.4807 16.5477 38.4807 16.2689V16.1502C38.4807 15.8748 38.4463 15.615 38.3775 15.3706C38.3121 15.1228 38.2123 14.9042 38.078 14.7149C37.9472 14.5222 37.782 14.3707 37.5824 14.2606C37.3862 14.1505 37.1556 14.0954 36.8906 14.0954C36.629 14.0954 36.3984 14.1505 36.1988 14.2606C36.0026 14.3707 35.8374 14.5222 35.7032 14.7149C35.5724 14.9042 35.4743 15.1228 35.4089 15.3706C35.3435 15.615 35.3108 15.8748 35.3108 16.1502ZM41.6765 13.4139V19H40.7162V13.4139H41.6765ZM40.6439 11.9322C40.6439 11.7773 40.6904 11.6465 40.7833 11.5398C40.8797 11.4331 41.0208 11.3798 41.2067 11.3798C41.3891 11.3798 41.5285 11.4331 41.6248 11.5398C41.7247 11.6465 41.7746 11.7773 41.7746 11.9322C41.7746 12.0802 41.7247 12.2075 41.6248 12.3142C41.5285 12.4175 41.3891 12.4691 41.2067 12.4691C41.0208 12.4691 40.8797 12.4175 40.7833 12.3142C40.6904 12.2075 40.6439 12.0802 40.6439 11.9322ZM44.1649 14.6065V19H43.2098V13.4139H44.1133L44.1649 14.6065ZM43.9378 15.9953L43.5402 15.9798C43.5437 15.5977 43.6005 15.245 43.7106 14.9214C43.8207 14.5944 43.9756 14.3105 44.1752 14.0696C44.3749 13.8286 44.6124 13.6428 44.8877 13.512C45.1665 13.3778 45.4745 13.3106 45.8118 13.3106C46.0872 13.3106 46.335 13.3485 46.5553 13.4242C46.7756 13.4965 46.9631 13.6135 47.118 13.7753C47.2763 13.9371 47.3968 14.147 47.4794 14.4051C47.562 14.6598 47.6033 14.9713 47.6033 15.3396V19H46.643V15.3293C46.643 15.0367 46.6 14.8027 46.514 14.6271C46.4279 14.4482 46.3023 14.3191 46.1371 14.2399C45.9719 14.1573 45.7688 14.116 45.5279 14.116C45.2904 14.116 45.0736 14.1659 44.8774 14.2658C44.6846 14.3656 44.5177 14.5032 44.3766 14.6788C44.2389 14.8543 44.1305 15.0557 44.0513 15.2828C43.9756 15.5065 43.9378 15.744 43.9378 15.9953ZM52.6731 13.4139H53.5405V18.8813C53.5405 19.3734 53.4407 19.7933 53.241 20.141C53.0414 20.4886 52.7626 20.7519 52.4047 20.9309C52.0502 21.1133 51.6406 21.2045 51.1759 21.2045C50.9832 21.2045 50.756 21.1735 50.4945 21.1116C50.2363 21.0531 49.9816 20.9515 49.7304 20.807C49.4826 20.6658 49.2743 20.4748 49.1057 20.2339L49.6065 19.666C49.8405 19.9482 50.0849 20.1444 50.3396 20.2545C50.5977 20.3647 50.8524 20.4198 51.1037 20.4198C51.4065 20.4198 51.6681 20.363 51.8884 20.2494C52.1087 20.1358 52.2791 19.9672 52.3995 19.7434C52.5234 19.5232 52.5854 19.2513 52.5854 18.9277V14.6426L52.6731 13.4139ZM48.8269 16.2689V16.1605C48.8269 15.7337 48.8768 15.3465 48.9766 14.9989C49.0799 14.6478 49.2261 14.3466 49.4154 14.0954C49.6082 13.8441 49.8405 13.6514 50.1124 13.5172C50.3843 13.3795 50.6906 13.3106 51.0314 13.3106C51.3825 13.3106 51.6888 13.3726 51.9504 13.4965C52.2154 13.617 52.4391 13.7942 52.6215 14.0283C52.8074 14.2589 52.9537 14.5377 53.0604 14.8646C53.167 15.1916 53.241 15.5616 53.2823 15.9746V16.4496C53.2445 16.8592 53.1705 17.2275 53.0604 17.5544C52.9537 17.8814 52.8074 18.1602 52.6215 18.3908C52.4391 18.6214 52.2154 18.7987 51.9504 18.9226C51.6853 19.043 51.3756 19.1033 51.0211 19.1033C50.6872 19.1033 50.3843 19.0327 50.1124 18.8916C49.844 18.7505 49.6134 18.5526 49.4206 18.2979C49.2279 18.0432 49.0799 17.7437 48.9766 17.3995C48.8768 17.0519 48.8269 16.675 48.8269 16.2689ZM49.782 16.1605V16.2689C49.782 16.5477 49.8095 16.8093 49.8646 17.0536C49.9231 17.298 50.0109 17.5131 50.1279 17.699C50.2484 17.8848 50.4015 18.0311 50.5874 18.1378C50.7732 18.2411 50.9952 18.2927 51.2534 18.2927C51.57 18.2927 51.8316 18.2256 52.0381 18.0914C52.2446 17.9571 52.4081 17.7799 52.5286 17.5596C52.6525 17.3393 52.7489 17.1001 52.8177 16.842V15.5977C52.7798 15.4084 52.7213 15.226 52.6422 15.0505C52.5664 14.8715 52.4666 14.7132 52.3427 14.5755C52.2223 14.4344 52.0725 14.3225 51.8936 14.2399C51.7146 14.1573 51.5046 14.116 51.2637 14.116C51.0021 14.116 50.7767 14.1711 50.5874 14.2812C50.4015 14.3879 50.2484 14.5359 50.1279 14.7252C50.0109 14.9111 49.9231 15.1279 49.8646 15.3757C49.8095 15.6201 49.782 15.8817 49.782 16.1605Z" fill="white"/>
<path d="M55.842 45.2783C47.2084 38.2242 27.8049 30.4551 21.0171 53.3251L21.4564 86.4889H102.285L101.846 47.6524C97.38 47.0336 91.3028 22.3433 81.7429 33.7689L75.4909 45.2783C73.8535 48.2484 67.6314 52.4065 55.842 45.2783Z" fill="url(#paint0_linear_2_255)"/>
<path d="M21.4569 53.327C28.2091 30.0081 47.0737 38.5634 55.662 45.756C67.3894 53.0241 73.5789 48.7843 75.2077 45.756L81.4268 34.0206C90.4248 21.0361 96.9647 47.0233 101.407 47.6542" stroke="#2FE9B6" stroke-width="0.88111" stroke-linecap="round"/>
<path d="M53.8176 76.4917V77.211H51.5081V76.4917H53.8176ZM59.6007 71.7733V73.2167H58.8908V71.7733H59.6007ZM59.5155 79.5015V80.7651H58.8104V79.5015H59.5155ZM60.462 78.0061C60.462 77.8168 60.4194 77.6464 60.3342 77.495C60.2491 77.3435 60.1087 77.2047 59.9131 77.0785C59.7174 76.9523 59.4556 76.8356 59.1275 76.7283C58.7299 76.6052 58.386 76.4554 58.0958 76.2787C57.8087 76.102 57.5862 75.8827 57.4285 75.6209C57.2739 75.359 57.1966 75.0419 57.1966 74.6696C57.1966 74.2816 57.2802 73.9471 57.4474 73.6663C57.6146 73.3855 57.8512 73.1694 58.1573 73.018C58.4633 72.8665 58.823 72.7908 59.2363 72.7908C59.5581 72.7908 59.8452 72.8397 60.0976 72.9375C60.35 73.0322 60.563 73.1742 60.7365 73.3635C60.9132 73.5528 61.0473 73.7847 61.1388 74.0591C61.2334 74.3336 61.2808 74.6507 61.2808 75.0104H60.41C60.41 74.799 60.3847 74.605 60.3342 74.4283C60.2838 74.2516 60.208 74.0986 60.1071 73.9692C60.0061 73.8367 59.8831 73.7357 59.7379 73.6663C59.5928 73.5938 59.4256 73.5575 59.2363 73.5575C58.9713 73.5575 58.752 73.6032 58.5785 73.6947C58.4081 73.7862 58.2819 73.9156 58.1999 74.0828C58.1178 74.2469 58.0768 74.4377 58.0768 74.6554C58.0768 74.8574 58.1178 75.034 58.1999 75.1855C58.2819 75.3369 58.4207 75.4742 58.6163 75.5972C58.8151 75.7171 59.088 75.8354 59.4351 75.9521C59.8421 76.0815 60.1875 76.2345 60.4715 76.4112C60.7554 76.5847 60.9716 76.7993 61.1198 77.0548C61.2681 77.3072 61.3423 77.6212 61.3423 77.9966C61.3423 78.4036 61.2508 78.7475 61.0678 79.0283C60.8848 79.3059 60.6277 79.5173 60.2964 79.6624C59.9651 79.8076 59.577 79.8801 59.1322 79.8801C58.864 79.8801 58.599 79.8439 58.3371 79.7713C58.0753 79.6987 57.8386 79.5804 57.6272 79.4164C57.4159 79.2491 57.2471 79.0299 57.1209 78.7585C56.9947 78.484 56.9316 78.148 56.9316 77.7505H57.8118C57.8118 78.0187 57.8497 78.2411 57.9254 78.4178C58.0043 78.5913 58.1084 78.7301 58.2377 78.8343C58.3671 78.9352 58.5091 79.0078 58.6637 79.052C58.8214 79.093 58.9776 79.1135 59.1322 79.1135C59.4161 79.1135 59.6559 79.0693 59.8515 78.981C60.0503 78.8895 60.2017 78.7601 60.3059 78.5929C60.41 78.4257 60.462 78.2301 60.462 78.0061ZM65.3129 72.8523V79.7808H64.4373V73.9456L62.6721 74.5892V73.7988L65.1756 72.8523H65.3129ZM72.5442 77.4618V78.1812H67.5655V77.6653L70.6512 72.8902H71.3658L70.5991 74.2721L68.5594 77.4618H72.5442ZM71.5835 72.8902V79.7808H70.7079V72.8902H71.5835ZM74.617 75.9048H75.2417C75.5477 75.9048 75.8001 75.8543 75.9989 75.7534C76.2008 75.6493 76.3507 75.5089 76.4485 75.3322C76.5495 75.1524 76.5999 74.9504 76.5999 74.7264C76.5999 74.4614 76.5558 74.239 76.4674 74.0591C76.3791 73.8793 76.2466 73.7436 76.0699 73.6521C75.8932 73.5606 75.6692 73.5149 75.3979 73.5149C75.1518 73.5149 74.9341 73.5638 74.7448 73.6616C74.5586 73.7563 74.4119 73.8919 74.3047 74.0686C74.2005 74.2453 74.1485 74.4535 74.1485 74.6933H73.273C73.273 74.3431 73.3613 74.0244 73.538 73.7373C73.7147 73.4502 73.9623 73.2215 74.281 73.0511C74.6028 72.8807 74.9751 72.7956 75.3979 72.7956C75.8143 72.7956 76.1787 72.8697 76.4911 73.018C76.8034 73.1631 77.0464 73.3808 77.2199 73.6711C77.3934 73.9582 77.4802 74.3163 77.4802 74.7454C77.4802 74.9189 77.4392 75.105 77.3571 75.3038C77.2783 75.4994 77.1536 75.6824 76.9833 75.8528C76.8161 76.0231 76.5984 76.1635 76.3302 76.274C76.062 76.3812 75.7402 76.4349 75.3648 76.4349H74.617V75.9048ZM74.617 76.6242V76.0989H75.3648C75.8033 76.0989 76.1661 76.1509 76.4532 76.255C76.7403 76.3591 76.9659 76.498 77.13 76.6715C77.2972 76.845 77.4139 77.0359 77.4802 77.2441C77.5496 77.4492 77.5843 77.6543 77.5843 77.8594C77.5843 78.1812 77.5291 78.4667 77.4187 78.7159C77.3114 78.9652 77.1584 79.1766 76.9596 79.3501C76.764 79.5236 76.5337 79.6546 76.2687 79.7429C76.0036 79.8312 75.715 79.8754 75.4026 79.8754C75.1029 79.8754 74.8205 79.8328 74.5555 79.7476C74.2936 79.6624 74.0617 79.5394 73.8598 79.3785C73.6579 79.2144 73.5001 79.0141 73.3866 78.7775C73.273 78.5377 73.2162 78.2648 73.2162 77.9587H74.0917C74.0917 78.1985 74.1438 78.4083 74.2479 78.5882C74.3551 78.768 74.5066 78.9084 74.7022 79.0094C74.901 79.1072 75.1344 79.1561 75.4026 79.1561C75.6708 79.1561 75.9011 79.1103 76.0936 79.0188C76.2892 78.9242 76.439 78.7822 76.5432 78.5929C76.6504 78.4036 76.7041 78.1654 76.7041 77.8783C76.7041 77.5912 76.6441 77.3561 76.5242 77.1731C76.4043 76.987 76.234 76.8498 76.0131 76.7614C75.7954 76.6699 75.5383 76.6242 75.2417 76.6242H74.617ZM79.8985 76.5011L79.1981 76.3213L79.5436 72.8902H83.0788V73.6995H80.2866L80.0783 75.5735C80.2045 75.501 80.3639 75.4331 80.5563 75.37C80.7519 75.3069 80.9759 75.2754 81.2284 75.2754C81.547 75.2754 81.8325 75.3306 82.0849 75.441C82.3373 75.5483 82.5519 75.7029 82.7286 75.9048C82.9084 76.1067 83.0456 76.3497 83.1403 76.6336C83.2349 76.9176 83.2823 77.2347 83.2823 77.5849C83.2823 77.9161 83.2365 78.2206 83.145 78.4982C83.0567 78.7759 82.9226 79.0188 82.7428 79.2271C82.5629 79.4321 82.3358 79.5915 82.0613 79.705C81.7899 79.8186 81.4697 79.8754 81.1006 79.8754C80.8229 79.8754 80.5595 79.8376 80.3102 79.7618C80.0641 79.683 79.8433 79.5646 79.6477 79.4069C79.4552 79.246 79.2975 79.0472 79.1744 78.8106C79.0545 78.5708 78.9788 78.29 78.9473 77.9682H79.7802C79.8181 78.2269 79.8938 78.4446 80.0074 78.6213C80.1209 78.798 80.2692 78.9321 80.4522 79.0236C80.6384 79.1119 80.8545 79.1561 81.1006 79.1561C81.3088 79.1561 81.4934 79.1198 81.6543 79.0472C81.8152 78.9747 81.9509 78.8705 82.0613 78.7349C82.1717 78.5992 82.2553 78.4351 82.3121 78.2427C82.372 78.0502 82.402 77.8341 82.402 77.5943C82.402 77.3766 82.372 77.1747 82.3121 76.9886C82.2522 76.8024 82.1622 76.6399 82.0423 76.5011C81.9256 76.3623 81.7821 76.255 81.6117 76.1793C81.4413 76.1004 81.2457 76.061 81.0249 76.061C80.7314 76.061 80.509 76.1004 80.3576 76.1793C80.2093 76.2582 80.0563 76.3655 79.8985 76.5011ZM84.3518 79.317C84.3518 79.1687 84.3976 79.0441 84.4891 78.9431C84.5837 78.839 84.7194 78.7869 84.8961 78.7869C85.0727 78.7869 85.2068 78.839 85.2983 78.9431C85.393 79.0441 85.4403 79.1687 85.4403 79.317C85.4403 79.4621 85.393 79.5852 85.2983 79.6861C85.2068 79.7871 85.0727 79.8376 84.8961 79.8376C84.7194 79.8376 84.5837 79.7871 84.4891 79.6861C84.3976 79.5852 84.3518 79.4621 84.3518 79.317ZM91.3134 79.0614V79.7808H86.8033V79.1513L89.0607 76.6384C89.3383 76.3292 89.5529 76.0673 89.7043 75.8528C89.8589 75.6351 89.9662 75.441 90.0261 75.2707C90.0892 75.0971 90.1208 74.9205 90.1208 74.7406C90.1208 74.5135 90.0734 74.3084 89.9788 74.1254C89.8873 73.9392 89.7516 73.791 89.5718 73.6805C89.392 73.5701 89.1743 73.5149 88.9187 73.5149C88.6127 73.5149 88.3571 73.5748 88.152 73.6947C87.9501 73.8115 87.7987 73.9755 87.6977 74.1869C87.5968 74.3983 87.5463 74.6412 87.5463 74.9157H86.6708C86.6708 74.5277 86.7559 74.1727 86.9263 73.8509C87.0967 73.5291 87.3491 73.2735 87.6835 73.0842C88.0179 72.8918 88.4297 72.7956 88.9187 72.7956C89.3541 72.7956 89.7264 72.8729 90.0356 73.0274C90.3448 73.1789 90.5814 73.3934 90.7455 73.6711C90.9127 73.9456 90.9963 74.2674 90.9963 74.6365C90.9963 74.8384 90.9616 75.0435 90.8922 75.2517C90.8259 75.4568 90.7328 75.6619 90.613 75.867C90.4962 76.072 90.359 76.274 90.2012 76.4727C90.0466 76.6715 89.881 76.8671 89.7043 77.0596L87.8586 79.0614H91.3134ZM96.5759 75.7865V76.8371C96.5759 77.4019 96.5255 77.8783 96.4245 78.2664C96.3235 78.6544 96.1784 78.9668 95.9891 79.2034C95.7998 79.44 95.5711 79.612 95.3029 79.7192C95.0379 79.8234 94.7381 79.8754 94.4037 79.8754C94.1387 79.8754 93.8942 79.8423 93.6702 79.776C93.4462 79.7098 93.2442 79.6041 93.0644 79.4589C92.8877 79.3107 92.7363 79.1182 92.6101 78.8816C92.4839 78.645 92.3877 78.3578 92.3214 78.0203C92.2551 77.6827 92.222 77.2883 92.222 76.8371V75.7865C92.222 75.2218 92.2725 74.7485 92.3735 74.3668C92.4776 73.985 92.6243 73.679 92.8136 73.4486C93.0029 73.2152 93.23 73.048 93.4951 72.947C93.7632 72.846 94.063 72.7956 94.3942 72.7956C94.6624 72.7956 94.9085 72.8287 95.1325 72.8949C95.3597 72.958 95.5616 73.0606 95.7383 73.2025C95.915 73.3414 96.0648 73.5275 96.1879 73.761C96.3141 73.9913 96.4103 74.2737 96.4766 74.6081C96.5428 74.9425 96.5759 75.3353 96.5759 75.7865ZM95.6957 76.9791V75.6398C95.6957 75.3306 95.6768 75.0593 95.6389 74.8258C95.6042 74.5892 95.5521 74.3873 95.4827 74.22C95.4133 74.0528 95.325 73.9172 95.2177 73.813C95.1136 73.7089 94.9921 73.6332 94.8533 73.5859C94.7176 73.5354 94.5646 73.5102 94.3942 73.5102C94.186 73.5102 94.0014 73.5496 93.8405 73.6285C93.6796 73.7042 93.544 73.8257 93.4335 73.9929C93.3263 74.1601 93.2442 74.3794 93.1874 74.6507C93.1307 74.922 93.1023 75.2517 93.1023 75.6398V76.9791C93.1023 77.2883 93.1196 77.5612 93.1543 77.7978C93.1922 78.0345 93.2474 78.2395 93.32 78.4131C93.3925 78.5834 93.4809 78.7238 93.585 78.8343C93.6891 78.9447 93.809 79.0267 93.9447 79.0803C94.0835 79.1308 94.2365 79.1561 94.4037 79.1561C94.6182 79.1561 94.806 79.1151 94.9669 79.033C95.1278 78.951 95.2619 78.8232 95.3691 78.6497C95.4796 78.473 95.5616 78.2474 95.6152 77.9729C95.6689 77.6953 95.6957 77.364 95.6957 76.9791Z" fill="white"/>
<ellipse cx="99.6495" cy="46.3441" rx="2.63571" ry="2.61818" fill="#2FE9B6"/>
<defs>
<linearGradient id="paint0_linear_2_255" x1="61.8707" y1="21.0342" x2="62.2994" y2="79.0707" gradientUnits="userSpaceOnUse">
<stop stop-color="#27C294" stop-opacity="0.63"/>
<stop offset="1" stop-color="#1F1E1F" stop-opacity="0.26"/>
</linearGradient>
</defs>
</svg>
