<svg width="235" height="231" viewBox="0 0 235 231" fill="none" xmlns="http://www.w3.org/2000/svg">
<path d="M102.994 47.4274C88.0388 42.4868 56.3208 43.4596 49.0887 86.8747L42.9377 120.05C33.248 127.615 20.8424 146.317 48.7372 160.604C55.2769 162.781 68.4507 170.281 68.8286 182.872C71.1438 189.751 78.7893 202.339 90.85 197.662C94.427 196.073 104.043 192.222 113.893 189.53C118.699 184.436 130.784 176.037 140.683 183.194C155.954 184.216 186.03 178.052 184.169 145.217C182.256 135.802 183.792 118.341 188.627 105.772C195.151 88.8145 199.584 54.5335 165.126 53.0726C152.478 56.2516 122.344 59.573 102.994 47.4274Z" fill="url(#paint0_linear_2_240)"/>
<g filter="url(#filter0_b_2_240)">
<path d="M90.0738 37.8742C79.594 32.6768 57.7028 30.5579 53.9767 63.6613C52.23 75.4554 45.0106 104.081 30.106 124.231C26.0305 130.628 18.7203 151.225 41.168 161.412C48.1546 163.212 64.34 172.327 73.1897 194.396C75.5975 200.401 89.1423 208.189 106.376 203.391C116.532 200.564 142.939 192.717 170.419 197.994C176.629 199.593 189.399 199.553 190.796 186.6C190.796 161.412 190.796 118.691 205.352 92.447C211.793 80.8334 210.592 54.3061 184.974 52.8669L161.686 51.6675C155.476 51.6675 132.459 48.9088 90.0738 37.8742Z" fill="white" fill-opacity="0.22"/>
</g>
<circle cx="116.307" cy="119.701" r="54.4007" fill="#171717"/>
<path d="M87.2987 107.957V110.24H86.0915V107.957H87.2987ZM87.1517 120.594V122.676H85.9445V120.594H87.1517ZM88.003 118.056C88.003 117.762 87.9488 117.512 87.8404 117.305C87.7373 117.099 87.567 116.916 87.3297 116.756C87.0975 116.596 86.7828 116.441 86.3856 116.292C85.7149 116.034 85.1242 115.76 84.6134 115.471C84.1078 115.177 83.7132 114.814 83.4294 114.38C83.1457 113.942 83.0038 113.387 83.0038 112.716C83.0038 112.077 83.156 111.522 83.4604 111.053C83.7648 110.583 84.1852 110.222 84.7218 109.969C85.2635 109.711 85.8929 109.582 86.61 109.582C87.1569 109.582 87.6521 109.665 88.0958 109.83C88.5395 109.99 88.9213 110.227 89.2411 110.542C89.561 110.851 89.8061 111.231 89.9763 111.679C90.1466 112.128 90.2317 112.642 90.2317 113.219H88.0107C88.0107 112.91 87.9772 112.636 87.9101 112.399C87.843 112.162 87.745 111.963 87.616 111.803C87.4922 111.643 87.3426 111.525 87.1672 111.447C86.9918 111.365 86.7983 111.323 86.5868 111.323C86.2721 111.323 86.0141 111.385 85.8129 111.509C85.6117 111.633 85.4647 111.801 85.3718 112.012C85.2841 112.219 85.2403 112.456 85.2403 112.724C85.2403 112.987 85.2867 113.217 85.3796 113.413C85.4776 113.609 85.6453 113.79 85.8826 113.955C86.1199 114.115 86.4449 114.28 86.8576 114.45C87.5283 114.708 88.1165 114.986 88.6221 115.286C89.1276 115.585 89.5223 115.951 89.8061 116.385C90.0898 116.818 90.2317 117.37 90.2317 118.041C90.2317 118.706 90.0769 119.274 89.7674 119.743C89.4578 120.207 89.0245 120.563 88.4673 120.811C87.9101 121.054 87.2652 121.175 86.5326 121.175C86.058 121.175 85.5859 121.113 85.1164 120.989C84.647 120.86 84.2213 120.654 83.8396 120.37C83.4578 120.086 83.1534 119.71 82.9264 119.24C82.6994 118.765 82.5859 118.182 82.5859 117.491H84.8146C84.8146 117.868 84.8637 118.182 84.9617 118.435C85.0597 118.683 85.1887 118.882 85.3486 119.031C85.5137 119.176 85.6994 119.279 85.9058 119.341C86.1122 119.403 86.3211 119.434 86.5326 119.434C86.8628 119.434 87.1337 119.374 87.3452 119.256C87.5619 119.137 87.7244 118.974 87.8327 118.768C87.9462 118.557 88.003 118.319 88.003 118.056ZM97.4983 109.629H97.8233V111.409H97.6917C97.1036 111.409 96.5799 111.496 96.1208 111.672C95.6616 111.847 95.2721 112.097 94.9523 112.422C94.6375 112.742 94.3951 113.129 94.2248 113.583C94.0597 114.037 93.9772 114.545 93.9772 115.108V116.98C93.9772 117.383 94.0159 117.739 94.0933 118.048C94.1758 118.353 94.2919 118.608 94.4415 118.814C94.5963 119.016 94.7768 119.168 94.9832 119.271C95.1896 119.369 95.4217 119.418 95.6797 119.418C95.9222 119.418 96.1414 119.366 96.3375 119.263C96.5387 119.16 96.7089 119.016 96.8482 118.83C96.9927 118.639 97.101 118.417 97.1732 118.164C97.2506 117.906 97.2893 117.625 97.2893 117.321C97.2893 117.017 97.2506 116.735 97.1732 116.477C97.101 116.219 96.9927 115.998 96.8482 115.812C96.7038 115.621 96.5284 115.474 96.322 115.371C96.1156 115.268 95.8835 115.216 95.6255 115.216C95.2747 115.216 94.9651 115.299 94.6969 115.464C94.4338 115.624 94.2274 115.83 94.0778 116.083C93.9282 116.336 93.8482 116.601 93.8379 116.88L93.1646 116.446C93.1801 116.049 93.2626 115.673 93.4123 115.317C93.567 114.961 93.7786 114.646 94.0468 114.372C94.3203 114.094 94.6479 113.877 95.0296 113.722C95.4114 113.563 95.8422 113.483 96.322 113.483C96.8482 113.483 97.31 113.583 97.7072 113.784C98.1096 113.986 98.445 114.262 98.7132 114.612C98.9815 114.963 99.1827 115.368 99.3168 115.827C99.451 116.287 99.518 116.777 99.518 117.298C99.518 117.845 99.4278 118.353 99.2472 118.822C99.0718 119.292 98.8164 119.702 98.4811 120.053C98.1509 120.403 97.7536 120.677 97.2893 120.873C96.825 121.069 96.3039 121.167 95.7261 121.167C95.1277 121.167 94.5834 121.059 94.0933 120.842C93.6083 120.62 93.1904 120.311 92.8396 119.913C92.4888 119.516 92.2179 119.044 92.027 118.497C91.8413 117.95 91.7485 117.352 91.7485 116.702V115.835C91.7485 114.927 91.88 114.096 92.1431 113.343C92.4114 112.585 92.7958 111.93 93.2962 111.378C93.7966 110.82 94.4002 110.39 95.107 110.085C95.8138 109.781 96.6109 109.629 97.4983 109.629ZM102.946 115.882L101.166 115.456L101.809 109.745H108.139V111.548H103.643L103.364 114.047C103.514 113.96 103.741 113.867 104.045 113.769C104.35 113.666 104.69 113.614 105.067 113.614C105.614 113.614 106.098 113.699 106.522 113.869C106.945 114.04 107.303 114.287 107.597 114.612C107.896 114.937 108.123 115.335 108.278 115.804C108.433 116.274 108.51 116.805 108.51 117.398C108.51 117.899 108.433 118.376 108.278 118.83C108.123 119.279 107.889 119.681 107.574 120.037C107.259 120.388 106.865 120.664 106.39 120.865C105.915 121.066 105.353 121.167 104.703 121.167C104.218 121.167 103.748 121.095 103.294 120.95C102.846 120.806 102.441 120.592 102.08 120.308C101.724 120.024 101.437 119.681 101.221 119.279C101.009 118.871 100.898 118.407 100.888 117.886H103.101C103.132 118.206 103.215 118.482 103.349 118.714C103.488 118.941 103.671 119.116 103.898 119.24C104.125 119.364 104.391 119.426 104.695 119.426C104.979 119.426 105.221 119.372 105.423 119.263C105.624 119.155 105.786 119.005 105.91 118.814C106.034 118.618 106.124 118.391 106.181 118.133C106.243 117.87 106.274 117.587 106.274 117.282C106.274 116.978 106.238 116.702 106.166 116.454C106.093 116.207 105.982 115.992 105.833 115.812C105.683 115.631 105.492 115.492 105.26 115.394C105.033 115.296 104.767 115.247 104.463 115.247C104.05 115.247 103.73 115.311 103.503 115.44C103.282 115.569 103.096 115.716 102.946 115.882ZM112.047 115.882L110.267 115.456L110.909 109.745H117.24V111.548H112.743L112.465 114.047C112.614 113.96 112.841 113.867 113.146 113.769C113.45 113.666 113.791 113.614 114.167 113.614C114.714 113.614 115.199 113.699 115.622 113.869C116.045 114.04 116.404 114.287 116.698 114.612C116.997 114.937 117.224 115.335 117.379 115.804C117.534 116.274 117.611 116.805 117.611 117.398C117.611 117.899 117.534 118.376 117.379 118.83C117.224 119.279 116.989 119.681 116.675 120.037C116.36 120.388 115.965 120.664 115.491 120.865C115.016 121.066 114.454 121.167 113.804 121.167C113.319 121.167 112.849 121.095 112.395 120.95C111.946 120.806 111.541 120.592 111.18 120.308C110.824 120.024 110.538 119.681 110.321 119.279C110.11 118.871 109.999 118.407 109.988 117.886H112.202C112.233 118.206 112.315 118.482 112.449 118.714C112.589 118.941 112.772 119.116 112.999 119.24C113.226 119.364 113.491 119.426 113.796 119.426C114.08 119.426 114.322 119.372 114.523 119.263C114.724 119.155 114.887 119.005 115.011 118.814C115.135 118.618 115.225 118.391 115.282 118.133C115.344 117.87 115.375 117.587 115.375 117.282C115.375 116.978 115.338 116.702 115.266 116.454C115.194 116.207 115.083 115.992 114.933 115.812C114.784 115.631 114.593 115.492 114.361 115.394C114.134 115.296 113.868 115.247 113.564 115.247C113.151 115.247 112.831 115.311 112.604 115.44C112.382 115.569 112.197 115.716 112.047 115.882ZM126.642 117.925C126.642 118.631 126.477 119.227 126.147 119.712C125.816 120.192 125.362 120.556 124.785 120.803C124.212 121.046 123.562 121.167 122.835 121.167C122.107 121.167 121.454 121.046 120.877 120.803C120.299 120.556 119.842 120.192 119.507 119.712C119.172 119.227 119.004 118.631 119.004 117.925C119.004 117.45 119.099 117.022 119.29 116.64C119.481 116.253 119.747 115.923 120.087 115.649C120.433 115.371 120.838 115.159 121.302 115.015C121.767 114.865 122.272 114.79 122.819 114.79C123.552 114.79 124.207 114.919 124.785 115.177C125.362 115.435 125.816 115.799 126.147 116.268C126.477 116.738 126.642 117.29 126.642 117.925ZM124.398 117.777C124.398 117.432 124.331 117.135 124.197 116.888C124.068 116.635 123.884 116.441 123.647 116.307C123.41 116.173 123.134 116.106 122.819 116.106C122.504 116.106 122.228 116.173 121.991 116.307C121.754 116.441 121.568 116.635 121.434 116.888C121.305 117.135 121.24 117.432 121.24 117.777C121.24 118.118 121.305 118.412 121.434 118.66C121.568 118.907 121.754 119.098 121.991 119.232C122.234 119.361 122.515 119.426 122.835 119.426C123.154 119.426 123.43 119.361 123.663 119.232C123.9 119.098 124.08 118.907 124.204 118.66C124.333 118.412 124.398 118.118 124.398 117.777ZM126.402 112.732C126.402 113.305 126.25 113.813 125.945 114.256C125.641 114.695 125.218 115.038 124.676 115.286C124.14 115.533 123.526 115.657 122.835 115.657C122.138 115.657 121.519 115.533 120.977 115.286C120.436 115.038 120.013 114.695 119.708 114.256C119.404 113.813 119.252 113.305 119.252 112.732C119.252 112.051 119.404 111.478 119.708 111.014C120.018 110.544 120.441 110.188 120.977 109.946C121.519 109.704 122.133 109.582 122.819 109.582C123.516 109.582 124.132 109.704 124.669 109.946C125.21 110.188 125.633 110.544 125.938 111.014C126.247 111.478 126.402 112.051 126.402 112.732ZM124.173 112.833C124.173 112.528 124.119 112.265 124.011 112.043C123.902 111.816 123.748 111.641 123.546 111.517C123.35 111.393 123.108 111.331 122.819 111.331C122.54 111.331 122.301 111.391 122.099 111.509C121.903 111.628 121.751 111.801 121.643 112.028C121.54 112.25 121.488 112.518 121.488 112.833C121.488 113.137 121.54 113.405 121.643 113.637C121.751 113.864 121.906 114.042 122.107 114.171C122.308 114.3 122.551 114.365 122.835 114.365C123.118 114.365 123.358 114.3 123.554 114.171C123.755 114.042 123.908 113.864 124.011 113.637C124.119 113.405 124.173 113.137 124.173 112.833ZM128.352 119.937C128.352 119.606 128.466 119.33 128.693 119.109C128.925 118.887 129.232 118.776 129.614 118.776C129.995 118.776 130.3 118.887 130.527 119.109C130.759 119.33 130.875 119.606 130.875 119.937C130.875 120.267 130.759 120.543 130.527 120.765C130.3 120.986 129.995 121.097 129.614 121.097C129.232 121.097 128.925 120.986 128.693 120.765C128.466 120.543 128.352 120.267 128.352 119.937ZM140.401 109.745V110.944L136.044 121.012H133.692L138.049 111.486H132.438V109.745H140.401ZM143.946 115.882L142.166 115.456L142.808 109.745H149.138V111.548H144.642L144.363 114.047C144.513 113.96 144.74 113.867 145.044 113.769C145.349 113.666 145.689 113.614 146.066 113.614C146.613 113.614 147.098 113.699 147.521 113.869C147.944 114.04 148.302 114.287 148.596 114.612C148.896 114.937 149.123 115.335 149.277 115.804C149.432 116.274 149.51 116.805 149.51 117.398C149.51 117.899 149.432 118.376 149.277 118.83C149.123 119.279 148.888 119.681 148.573 120.037C148.259 120.388 147.864 120.664 147.389 120.865C146.915 121.066 146.352 121.167 145.702 121.167C145.217 121.167 144.748 121.095 144.294 120.95C143.845 120.806 143.44 120.592 143.079 120.308C142.723 120.024 142.437 119.681 142.22 119.279C142.008 118.871 141.897 118.407 141.887 117.886H144.1C144.131 118.206 144.214 118.482 144.348 118.714C144.487 118.941 144.67 119.116 144.897 119.24C145.124 119.364 145.39 119.426 145.694 119.426C145.978 119.426 146.221 119.372 146.422 119.263C146.623 119.155 146.786 119.005 146.909 118.814C147.033 118.618 147.124 118.391 147.18 118.133C147.242 117.87 147.273 117.587 147.273 117.282C147.273 116.978 147.237 116.702 147.165 116.454C147.093 116.207 146.982 115.992 146.832 115.812C146.682 115.631 146.492 115.492 146.259 115.394C146.032 115.296 145.767 115.247 145.462 115.247C145.05 115.247 144.73 115.311 144.503 115.44C144.281 115.569 144.095 115.716 143.946 115.882Z" fill="white"/>
<path d="M109.314 137.439V138.446H104.68V137.439H109.314ZM107.541 135.544V140.466H106.459V135.544H107.541ZM113.224 134.36V141.144H112.105V135.688L110.447 136.25V135.326L113.089 134.36H113.224ZM118.954 134.342H119.093V135.257H119.014C118.615 135.257 118.269 135.319 117.978 135.442C117.691 135.566 117.454 135.736 117.268 135.953C117.082 136.17 116.943 136.424 116.85 136.715C116.76 137.002 116.716 137.309 116.716 137.634V138.697C116.716 138.967 116.745 139.205 116.804 139.412C116.863 139.617 116.945 139.788 117.05 139.928C117.158 140.064 117.282 140.168 117.421 140.239C117.561 140.31 117.711 140.346 117.872 140.346C118.039 140.346 118.191 140.311 118.327 140.243C118.463 140.172 118.579 140.075 118.675 139.951C118.771 139.827 118.844 139.68 118.893 139.51C118.943 139.34 118.967 139.154 118.967 138.953C118.967 138.761 118.943 138.581 118.893 138.414C118.847 138.244 118.777 138.095 118.684 137.968C118.591 137.838 118.475 137.738 118.336 137.666C118.2 137.592 118.042 137.555 117.862 137.555C117.64 137.555 117.437 137.608 117.254 137.713C117.075 137.818 116.929 137.956 116.818 138.126C116.709 138.293 116.651 138.471 116.641 138.66L116.214 138.521C116.239 138.233 116.302 137.974 116.404 137.745C116.51 137.516 116.647 137.321 116.818 137.16C116.988 136.999 117.184 136.877 117.407 136.794C117.633 136.707 117.881 136.663 118.15 136.663C118.478 136.663 118.763 136.725 119.005 136.849C119.246 136.973 119.446 137.142 119.604 137.355C119.765 137.566 119.884 137.807 119.961 138.08C120.042 138.349 120.082 138.631 120.082 138.925C120.082 139.25 120.032 139.553 119.933 139.835C119.834 140.113 119.689 140.358 119.497 140.568C119.308 140.779 119.077 140.943 118.805 141.061C118.536 141.178 118.229 141.237 117.886 141.237C117.523 141.237 117.2 141.167 116.915 141.028C116.634 140.889 116.394 140.697 116.195 140.452C116 140.208 115.852 139.926 115.75 139.607C115.648 139.288 115.597 138.951 115.597 138.595V138.131C115.597 137.617 115.662 137.132 115.792 136.677C115.922 136.219 116.121 135.815 116.391 135.466C116.663 135.116 117.011 134.842 117.435 134.644C117.859 134.443 118.365 134.342 118.954 134.342ZM120.932 136.041V135.684C120.932 135.427 120.987 135.193 121.099 134.983C121.21 134.772 121.373 134.603 121.586 134.477C121.8 134.35 122.057 134.286 122.357 134.286C122.667 134.286 122.927 134.35 123.137 134.477C123.351 134.603 123.513 134.772 123.625 134.983C123.736 135.193 123.792 135.427 123.792 135.684V136.041C123.792 136.292 123.736 136.523 123.625 136.733C123.516 136.944 123.355 137.112 123.142 137.239C122.931 137.366 122.673 137.43 122.366 137.43C122.063 137.43 121.803 137.366 121.586 137.239C121.373 137.112 121.21 136.944 121.099 136.733C120.987 136.523 120.932 136.292 120.932 136.041ZM121.707 135.684V136.041C121.707 136.165 121.73 136.283 121.777 136.394C121.826 136.506 121.9 136.595 121.999 136.663C122.099 136.732 122.221 136.766 122.366 136.766C122.515 136.766 122.636 136.732 122.728 136.663C122.824 136.595 122.896 136.506 122.942 136.394C122.988 136.283 123.012 136.165 123.012 136.041V135.684C123.012 135.557 122.987 135.438 122.937 135.326C122.891 135.212 122.82 135.12 122.724 135.052C122.628 134.984 122.506 134.95 122.357 134.95C122.215 134.95 122.094 134.984 121.995 135.052C121.899 135.12 121.826 135.212 121.777 135.326C121.73 135.438 121.707 135.557 121.707 135.684ZM124.191 139.849V139.487C124.191 139.233 124.247 139.001 124.358 138.79C124.473 138.58 124.637 138.411 124.85 138.284C125.064 138.157 125.321 138.094 125.621 138.094C125.931 138.094 126.191 138.157 126.401 138.284C126.615 138.411 126.776 138.58 126.884 138.79C126.996 139.001 127.051 139.233 127.051 139.487V139.849C127.051 140.103 126.996 140.335 126.884 140.545C126.776 140.756 126.616 140.924 126.406 141.051C126.195 141.178 125.938 141.242 125.635 141.242C125.329 141.242 125.067 141.178 124.85 141.051C124.637 140.924 124.473 140.756 124.358 140.545C124.247 140.335 124.191 140.103 124.191 139.849ZM124.971 139.487V139.849C124.971 139.973 124.996 140.09 125.045 140.202C125.098 140.313 125.174 140.404 125.273 140.476C125.372 140.544 125.491 140.578 125.63 140.578C125.788 140.578 125.915 140.544 126.011 140.476C126.107 140.404 126.175 140.315 126.215 140.206C126.259 140.095 126.28 139.976 126.28 139.849V139.487C126.28 139.36 126.256 139.24 126.206 139.129C126.16 139.018 126.087 138.928 125.988 138.86C125.892 138.792 125.77 138.758 125.621 138.758C125.476 138.758 125.355 138.792 125.259 138.86C125.163 138.928 125.09 139.018 125.041 139.129C124.994 139.24 124.971 139.36 124.971 139.487ZM125.9 135.349L122.598 140.633L122.027 140.304L125.329 135.02L125.9 135.349Z" fill="#E7E7E7"/>
<defs>
<filter id="filter0_b_2_240" x="-4.77807" y="4.46592" width="243.835" height="230.835" filterUnits="userSpaceOnUse" color-interpolation-filters="sRGB">
<feFlood flood-opacity="0" result="BackgroundImageFix"/>
<feGaussianBlur in="BackgroundImage" stdDeviation="15.2088"/>
<feComposite in2="SourceAlpha" operator="in" result="effect1_backgroundBlur_2_240"/>
<feBlend mode="normal" in="SourceGraphic" in2="effect1_backgroundBlur_2_240" result="shape"/>
</filter>
<linearGradient id="paint0_linear_2_240" x1="72.5408" y1="48.9294" x2="162.012" y2="181.575" gradientUnits="userSpaceOnUse">
<stop stop-color="#FED7FD"/>
<stop offset="1" stop-color="#24C690"/>
</linearGradient>
</defs>
</svg>
