<svg width="23" height="23" viewBox="0 0 23 23" fill="none" xmlns="http://www.w3.org/2000/svg">
<path d="M20.4763 18.9043C20.3814 18.8784 20.2664 18.8928 20.1341 18.9417C18.3629 19.7533 16.6405 20.3319 14.967 20.6744C11.3527 21.4112 7.83031 21.0255 4.40283 19.5202C3.45108 19.1 2.1284 18.3919 0.434787 17.3903C0.391148 17.3558 0.33791 17.3357 0.282391 17.3327C0.224883 17.3299 0.176001 17.3356 0.129995 17.3587C0.0839884 17.3817 0.0494835 17.4105 0.0236049 17.4479C-0.00227364 17.4853 -0.00802426 17.5371 0.0121035 17.6033C0.0293559 17.6666 0.0724868 17.7386 0.144372 17.8163C0.443413 18.1674 0.814339 18.5416 1.25428 18.9388C1.69421 19.336 2.27792 19.785 3.00539 20.2858C3.73287 20.7866 4.49485 21.2328 5.28558 21.6213C6.07919 22.0099 6.99932 22.338 8.04884 22.6028C9.09836 22.8676 10.1479 23 11.1945 23C12.2354 23 13.2476 22.8935 14.2281 22.6863C15.2115 22.4762 16.0396 22.2286 16.7153 21.9408C17.3881 21.6559 18.0092 21.3364 18.5785 20.991C19.1479 20.6456 19.5677 20.352 19.8408 20.1189C20.114 19.8829 20.3095 19.6987 20.4217 19.5605C20.5539 19.3964 20.6201 19.2554 20.6201 19.1316C20.623 19.0021 20.5712 18.9273 20.4763 18.9043ZM11.9191 6.79264C11.4821 6.83006 10.9559 6.91065 10.3377 7.03153C9.71945 7.14954 9.14724 7.29921 8.61817 7.47478C8.0891 7.65036 7.54852 7.89501 6.99932 8.20586C6.44724 8.51671 5.97855 8.87361 5.59037 9.2708C5.2022 9.668 4.8859 10.1659 4.63862 10.7675C4.39133 11.3662 4.26769 12.0253 4.26769 12.7448C4.26769 13.5248 4.40284 14.2185 4.67887 14.8316C4.95204 15.4446 5.31721 15.9253 5.77727 16.2822C6.23446 16.6391 6.75491 16.9183 7.32999 17.1226C7.90507 17.327 8.51465 17.4191 9.14724 17.3932C9.77983 17.3673 10.398 17.2694 10.999 17.0967C11.5971 16.9269 12.1607 16.6535 12.684 16.2822C13.2073 15.9109 13.6357 15.4705 13.9722 14.9668C14.0958 15.1568 14.2051 15.2978 14.3028 15.3899L14.553 15.6461C14.7198 15.8159 14.9757 16.0663 15.3207 16.3973C15.6629 16.7283 16.0137 17.0507 16.3645 17.3673L19.3664 14.4919L19.1939 14.3509C19.0702 14.2559 18.9236 14.1206 18.7568 13.9393C18.59 13.7609 18.4233 13.5623 18.2622 13.3493C18.0984 13.1363 17.9575 12.8859 17.8396 12.6038C17.7217 12.3217 17.6613 12.0483 17.6613 11.7835V4.2195C17.6613 3.92879 17.6067 3.61507 17.4974 3.27543C17.3853 2.93868 17.1897 2.57027 16.9022 2.17307C16.6146 1.77587 16.2581 1.41897 15.8325 1.10812C15.4041 0.797272 14.8348 0.532474 14.1188 0.319484C13.4057 0.106495 12.6063 0 11.7265 0C10.8265 0 9.98973 0.106495 9.20762 0.313728C8.42839 0.523839 7.7613 0.803028 7.20347 1.15417C6.64852 1.50532 6.1712 1.91115 5.7744 2.37455C5.37759 2.83794 5.08143 3.32149 4.88878 3.82518C4.69613 4.32887 4.59836 4.83832 4.59836 5.35352L8.4859 5.69603C8.64405 5.224 8.85683 4.81529 9.11849 4.46415C9.38302 4.113 9.63318 3.85972 9.86034 3.70141C10.0904 3.54311 10.3377 3.41647 10.5993 3.32149C10.8639 3.2265 11.0421 3.17757 11.1341 3.16606C11.2262 3.15743 11.298 3.15455 11.3527 3.15455C12.1204 3.15455 12.6524 3.38193 12.9514 3.83381C13.1383 4.10725 13.2303 4.52171 13.2303 5.08009V6.70917C12.7932 6.72644 12.3562 6.75522 11.9191 6.79264ZM13.2332 11.1647C13.2332 11.6425 13.1699 12.0771 13.0463 12.4599C12.7817 13.2975 12.2785 13.8242 11.5396 14.0372C10.8955 14.2271 10.283 14.1321 9.70219 13.7551C9.08398 13.3521 8.77631 12.7823 8.77631 12.0483C8.77631 11.4755 8.92008 10.9862 9.20762 10.5775C9.49516 10.1717 9.87759 9.8666 10.3578 9.66512C10.838 9.46365 11.3067 9.31973 11.7667 9.23627C12.2239 9.14992 12.7156 9.09811 13.2332 9.08084V11.1647ZM22.8715 17.4651C22.7479 17.3097 22.4143 17.209 21.868 17.1572C21.3217 17.1054 20.8472 17.1082 20.4389 17.1687C19.999 17.2205 19.5447 17.3471 19.0789 17.5544C18.6102 17.7587 18.406 17.9314 18.4578 18.0667L18.4779 18.1041L18.5038 18.1243L18.544 18.13H18.6763C18.6993 18.13 18.7281 18.1271 18.7683 18.1243C18.8086 18.1214 18.846 18.1156 18.8805 18.1128C18.915 18.1099 18.9638 18.1041 19.0271 18.1012C19.0875 18.0984 19.145 18.0897 19.1996 18.0811C19.2083 18.0811 19.306 18.0725 19.4958 18.0552C19.6856 18.0379 19.8236 18.0264 19.907 18.0178C19.9904 18.0091 20.1313 18.0005 20.3239 17.9919C20.5166 17.9832 20.6718 17.9832 20.7868 17.9919C20.9019 18.0005 21.0313 18.012 21.1779 18.0235C21.3245 18.035 21.4424 18.0609 21.5345 18.1012C21.6265 18.1387 21.6955 18.1876 21.7386 18.248C21.8881 18.438 21.8594 18.8582 21.6523 19.5116C21.4453 20.1649 21.2498 20.6859 21.0658 21.0716C20.9853 21.2356 20.9853 21.3364 21.0658 21.3796C21.1463 21.4227 21.2584 21.3824 21.4079 21.2644C21.8565 20.9133 22.2303 20.3837 22.5322 19.6728C22.7076 19.2525 22.8341 18.815 22.9089 18.3574C22.9779 17.8998 22.9664 17.6033 22.8715 17.4651Z" fill="white"/>
</svg>
