<svg width="23" height="26" viewBox="0 0 23 26" fill="none" xmlns="http://www.w3.org/2000/svg">
<path d="M22.1439 18.2139L19.691 13.6854V8.97031C19.691 4.26265 15.8611 0.432678 11.1534 0.432678C6.44575 0.432678 2.61578 4.26265 2.61578 8.97031V13.6854L0.162787 18.2139C0.0515464 18.4192 -0.0044416 18.6499 0.000309584 18.8834C0.00506077 19.1169 0.0703881 19.3451 0.18989 19.5458C0.309393 19.7464 0.478971 19.9126 0.682008 20.028C0.885046 20.1434 1.11458 20.204 1.34811 20.204H6.23113C6.21751 20.3534 6.21063 20.5034 6.21052 20.6534C6.21052 21.9643 6.73128 23.2215 7.65824 24.1485C8.5852 25.0755 9.84243 25.5962 11.1534 25.5962C12.4643 25.5962 13.7215 25.0755 14.6485 24.1485C15.5754 23.2215 16.0962 21.9643 16.0962 20.6534C16.0962 20.5017 16.0889 20.3521 16.0756 20.204H20.9586C21.1921 20.204 21.4216 20.1433 21.6246 20.0279C21.8276 19.9125 21.9972 19.7464 22.1167 19.5457C22.2361 19.3451 22.3015 19.1169 22.3062 18.8834C22.311 18.6499 22.2551 18.4192 22.1439 18.2139ZM14.2989 20.6534C14.2992 21.0856 14.2105 21.5133 14.0382 21.9098C13.8658 22.3062 13.6137 22.6629 13.2974 22.9575C12.9811 23.2521 12.6075 23.4784 12.1998 23.6222C11.7922 23.766 11.3593 23.8243 10.9281 23.7933C10.497 23.7623 10.0769 23.6429 9.69394 23.4423C9.31103 23.2417 8.97357 22.9644 8.70261 22.6276C8.43166 22.2908 8.23304 21.9018 8.11914 21.4848C8.00523 21.0678 7.9785 20.6318 8.0406 20.204H14.2662C14.2878 20.3528 14.2987 20.503 14.2989 20.6534ZM2.10251 18.4066L4.41318 14.1409V8.97031C4.41318 7.18269 5.12331 5.46828 6.38735 4.20424C7.65139 2.9402 9.36579 2.23007 11.1534 2.23007C12.941 2.23007 14.6554 2.9402 15.9195 4.20424C17.1835 5.46828 17.8936 7.18269 17.8936 8.97031V14.1409L20.2042 18.4066H2.10251Z" fill="white"/>
<circle cx="17.9816" cy="4.92806" r="4.49532" fill="#FC003C"/>
</svg>
