<svg width="30" height="31" viewBox="0 0 30 31" fill="none" xmlns="http://www.w3.org/2000/svg">
<circle cx="15" cy="15.0742" r="15" fill="#4E33FF" fill-opacity="0.6"/>
<path d="M22.7134 11.3513L17.723 6.36084C17.5647 6.20254 17.308 6.20254 17.1497 6.36084L6.28666 17.2239C6.12836 17.3822 6.12836 17.6388 6.28666 17.7971L11.2771 22.7876C11.4354 22.9459 11.6921 22.9459 11.8504 22.7876L22.7134 11.9245C22.8717 11.7662 22.8717 11.5096 22.7134 11.3513Z" stroke="white" stroke-width="0.630541" stroke-linecap="round" stroke-linejoin="round"/>
<path d="M11.7139 11.791L17.2806 17.3578" stroke="white" stroke-width="0.630541" stroke-linecap="round" stroke-linejoin="round"/>
<path d="M17.4466 12.9656C18.1879 12.9656 18.7888 12.3647 18.7888 11.6234C18.7888 10.8822 18.1879 10.2812 17.4466 10.2812C16.7054 10.2812 16.1045 10.8822 16.1045 11.6234C16.1045 12.3647 16.7054 12.9656 17.4466 12.9656Z" stroke="white" stroke-width="0.630541" stroke-linecap="round" stroke-linejoin="round"/>
<path d="M13.5287 18.8484C14.2699 18.8484 14.8708 18.2475 14.8708 17.5062C14.8708 16.765 14.2699 16.1641 13.5287 16.1641C12.7874 16.1641 12.1865 16.765 12.1865 17.5062C12.1865 18.2475 12.7874 18.8484 13.5287 18.8484Z" stroke="white" stroke-width="0.630541" stroke-linecap="round" stroke-linejoin="round"/>
<path d="M9.59703 18.8484C10.3383 18.8484 10.9392 18.2475 10.9392 17.5062C10.9392 16.765 10.3383 16.1641 9.59703 16.1641C8.85578 16.1641 8.25488 16.765 8.25488 17.5062C8.25488 18.2475 8.85578 18.8484 9.59703 18.8484Z" stroke="white" stroke-width="0.630541" stroke-linecap="round" stroke-linejoin="round"/>
</svg>
