<svg width="19" height="10" viewBox="0 0 19 10" fill="none" xmlns="http://www.w3.org/2000/svg">
<path d="M18.8659 2.01197C18.8666 2.20383 18.8243 2.3934 18.742 2.56674C18.6598 2.74009 18.5398 2.89281 18.3908 3.01368L10.6852 9.21664C10.4554 9.40553 10.1672 9.50879 9.86974 9.50879C9.57227 9.50879 9.28403 9.40553 9.05424 9.21664L1.34871 2.79536C1.08644 2.57737 0.92151 2.26413 0.8902 1.92454C0.85889 1.58495 0.963765 1.24683 1.18175 0.984561C1.39974 0.722295 1.71298 0.557365 2.05258 0.526056C2.39217 0.494746 2.73029 0.59962 2.99255 0.817608L9.87616 6.55823L16.7598 1.01025C16.9483 0.853204 17.1778 0.753447 17.4213 0.722779C17.6647 0.692112 17.9118 0.731817 18.1334 0.837198C18.3549 0.942578 18.5417 1.10922 18.6715 1.31741C18.8013 1.52561 18.8688 1.76663 18.8659 2.01197Z" fill="white"/>
</svg>
