<svg width="30" height="30" viewBox="0 0 30 30" fill="none" xmlns="http://www.w3.org/2000/svg">
<circle cx="15" cy="15" r="15" fill="#F1785B" fill-opacity="0.6"/>
<path d="M17.5446 12.0485V10.8482C17.5446 10.4742 17.4709 10.1038 17.3278 9.75824C17.1847 9.41268 16.9749 9.0987 16.7104 8.83422C16.4459 8.56974 16.1319 8.35994 15.7864 8.21681C15.4408 8.07367 15.0704 8 14.6964 8C14.3224 8 13.952 8.07367 13.6064 8.21681C13.2609 8.35994 12.9469 8.56974 12.6824 8.83422C12.4179 9.0987 12.2081 9.41268 12.065 9.75824C11.9219 10.1038 11.8482 10.4742 11.8482 10.8482V13.6964C11.8482 13.8043 11.8911 13.9078 11.9674 13.9841C12.0437 14.0604 12.1472 14.1033 12.2551 14.1033C12.363 14.1033 12.4665 14.0604 12.5428 13.9841C12.6191 13.9078 12.662 13.8043 12.662 13.6964V12.8623H15.9171V12.0485H12.662V10.8482C12.662 10.3086 12.8763 9.79117 13.2578 9.40964C13.6394 9.02811 14.1568 8.81377 14.6964 8.81377C15.236 8.81377 15.7534 9.02811 16.135 9.40964C16.5165 9.79117 16.7308 10.3086 16.7308 10.8482V13.6761C16.7308 13.784 16.7737 13.8875 16.85 13.9638C16.9263 14.0401 17.0298 14.0829 17.1377 14.0829C17.2456 14.0829 17.3491 14.0401 17.4254 13.9638C17.5017 13.8875 17.5446 13.784 17.5446 13.6761V12.8623H19.579V20.1862H9.81377V12.8623H11.0344V12.0485H9V20.2228C9 20.429 9.08188 20.6266 9.22762 20.7724C9.37337 20.9181 9.57104 21 9.77715 21H19.6156C19.8218 21 20.0194 20.9181 20.1652 20.7724C20.3109 20.6266 20.3928 20.429 20.3928 20.2228V12.0485H17.5446Z" fill="white"/>
</svg>
