<svg width="23" height="25" viewBox="0 0 23 25" fill="none" xmlns="http://www.w3.org/2000/svg">
<path d="M3.07499 1.38854C2.95682 1.38971 2.83973 1.4112 2.72882 1.45208V1.04167C2.72882 0.467708 3.19558 0 3.76836 0H19.0153C19.5881 0 20.0548 0.467708 20.0548 1.04167V1.38854H3.07499ZM21.0944 3.81979H2.03545C1.46266 3.81979 0.995911 4.2875 0.995911 4.86146V23.9583C0.995911 24.5323 1.46266 25 2.03545 25H9.62409L10.7655 19.1198H8.43693C8.38392 19.1198 3.07499 18.8687 3.07499 18.8687L7.89741 18.5281L7.81633 18.1469L5.76012 17.85L7.71653 17.6854L7.58763 17.2177L4.39105 16.7312C4.39105 16.7312 7.86415 16.3427 7.91716 16.3427H11.277L11.5337 14.9562C11.8341 13.2729 12.5161 12.0323 13.5847 11.1094C14.6586 10.1802 16.0214 9.72187 17.6774 9.72187C18.3458 9.72187 18.772 9.87917 18.9571 10.2042C19.0797 10.3979 19.166 10.7417 19.2471 11.099C19.324 11.4656 19.3926 11.7979 19.3459 12.0396C19.2866 12.399 18.8666 12.524 18.1015 12.524H17.8385C16.4591 12.524 15.6202 13.3187 15.3384 14.9302L15.0858 16.3417H16.6867C17.2834 16.3417 17.4986 16.7604 17.3333 17.7021C17.1566 18.6823 16.773 19.1187 16.1784 19.1187H14.5796L13.4402 25H21.0933C21.6661 25 22.1329 24.5323 22.1329 23.9583V4.86146C22.1329 4.58537 22.0235 4.32058 21.8288 4.12526C21.634 3.92994 21.3699 3.82007 21.0944 3.81979ZM20.401 2.43021C20.4007 2.3383 20.3642 2.25023 20.2993 2.18523C20.2344 2.12024 20.1466 2.08361 20.0548 2.08333H3.07499C2.98326 2.08361 2.89538 2.12024 2.83052 2.18523C2.76566 2.25023 2.7291 2.3383 2.72882 2.43021V3.125H20.401V2.43021Z" fill="white"/>
</svg>
