<svg width="30" height="31" viewBox="0 0 30 31" fill="none" xmlns="http://www.w3.org/2000/svg">
<circle cx="15" cy="15.7871" r="15" fill="#AD96AD" fill-opacity="0.6"/>
<path d="M17.5446 12.8356V11.6353C17.5446 11.2613 17.4709 10.8909 17.3278 10.5454C17.1847 10.1998 16.9749 9.88581 16.7104 9.62133C16.4459 9.35685 16.1319 9.14705 15.7864 9.00392C15.4408 8.86078 15.0704 8.78711 14.6964 8.78711C14.3224 8.78711 13.952 8.86078 13.6064 9.00392C13.2609 9.14705 12.9469 9.35685 12.6824 9.62133C12.4179 9.88581 12.2081 10.1998 12.065 10.5454C11.9219 10.8909 11.8482 11.2613 11.8482 11.6353V14.4835C11.8482 14.5914 11.8911 14.6949 11.9674 14.7712C12.0437 14.8475 12.1472 14.8904 12.2551 14.8904C12.363 14.8904 12.4665 14.8475 12.5428 14.7712C12.6191 14.6949 12.662 14.5914 12.662 14.4835V13.6494H15.9171V12.8356H12.662V11.6353C12.662 11.0957 12.8763 10.5783 13.2578 10.1968C13.6394 9.81522 14.1568 9.60088 14.6964 9.60088C15.236 9.60088 15.7534 9.81522 16.135 10.1968C16.5165 10.5783 16.7308 11.0957 16.7308 11.6353V14.4632C16.7308 14.5711 16.7737 14.6746 16.85 14.7509C16.9263 14.8272 17.0298 14.8701 17.1377 14.8701C17.2456 14.8701 17.3491 14.8272 17.4254 14.7509C17.5017 14.6746 17.5446 14.5711 17.5446 14.4632V13.6494H19.579V20.9733H9.81377V13.6494H11.0344V12.8356H9V21.01C9 21.2161 9.08188 21.4137 9.22762 21.5595C9.37337 21.7052 9.57104 21.7871 9.77715 21.7871H19.6156C19.8218 21.7871 20.0194 21.7052 20.1652 21.5595C20.3109 21.4137 20.3928 21.2161 20.3928 21.01V12.8356H17.5446Z" fill="white"/>
</svg>
