<svg width="7" height="14" viewBox="0 0 7 14" fill="none" xmlns="http://www.w3.org/2000/svg">
<path d="M5.52483 13.2743C5.38344 13.2748 5.24373 13.2437 5.11598 13.1832C4.98823 13.1227 4.87568 13.0343 4.78661 12.9247L0.215304 7.25515C0.0760997 7.08607 0 6.87398 0 6.65512C0 6.43625 0.0760997 6.22416 0.215304 6.05509L4.9475 0.385517C5.10815 0.192546 5.339 0.0711945 5.58926 0.0481574C5.83952 0.0251203 6.0887 0.102285 6.28198 0.262676C6.47526 0.423066 6.59681 0.653545 6.61988 0.903409C6.64295 1.15327 6.56567 1.40205 6.40502 1.59502L2.17443 6.65984L6.26305 11.7247C6.37879 11.8634 6.4523 12.0323 6.4749 12.2114C6.4975 12.3905 6.46824 12.5723 6.39058 12.7353C6.31292 12.8984 6.19011 13.0358 6.03668 13.1313C5.88326 13.2268 5.70563 13.2764 5.52483 13.2743Z" fill="white"/>
</svg>
