<svg width="114" height="18" viewBox="0 0 114 18" fill="none" xmlns="http://www.w3.org/2000/svg">
<path d="M7.29019 18H5.19019C4.82352 18 4.64019 17.825 4.64019 17.475V4.95C4.64019 4.76667 4.54852 4.675 4.36519 4.675H1.51519C1.16519 4.675 0.990186 4.5 0.990186 4.15V2.45C0.990186 2.1 1.16519 1.925 1.51519 1.925H10.9652C11.3152 1.925 11.4902 2.1 11.4902 2.45V4.15C11.4902 4.5 11.3152 4.675 10.9652 4.675H8.11519C7.91519 4.675 7.81519 4.76667 7.81519 4.95V17.475C7.81519 17.825 7.64019 18 7.29019 18ZM23.2992 18H17.7742C16.4575 18 15.4408 17.65 14.7242 16.95C14.0075 16.25 13.6492 15.2417 13.6492 13.925V9.325C13.6492 8.00833 14.0075 7 14.7242 6.3C15.4408 5.6 16.4575 5.25 17.7742 5.25H19.7492C21.0658 5.25 22.0825 5.6 22.7992 6.3C23.5158 7 23.8742 8.00833 23.8742 9.325V12.5C23.8742 12.85 23.6992 13.025 23.3492 13.025H17.0742C16.8742 13.025 16.7742 13.1167 16.7742 13.3V13.85C16.7742 14.3667 16.8825 14.7417 17.0992 14.975C17.3325 15.1917 17.7158 15.3 18.2492 15.3H23.2992C23.6492 15.3 23.8242 15.4833 23.8242 15.85V17.5C23.8242 17.6833 23.7825 17.8167 23.6992 17.9C23.6325 17.9667 23.4992 18 23.2992 18ZM17.0742 10.9H20.4742C20.6575 10.9 20.7492 10.8083 20.7492 10.625V9.425C20.7492 8.89167 20.6408 8.51667 20.4242 8.3C20.2075 8.08333 19.8325 7.975 19.2992 7.975H18.2492C17.7158 7.975 17.3408 8.08333 17.1242 8.3C16.9075 8.51667 16.7992 8.89167 16.7992 9.425V10.625C16.7992 10.8083 16.8908 10.9 17.0742 10.9ZM35.1277 15.775V17.5C35.1277 17.6833 35.086 17.8167 35.0027 17.9C34.936 17.9667 34.8027 18 34.6027 18H30.8777C29.561 18 28.5444 17.65 27.8277 16.95C27.111 16.25 26.7527 15.2417 26.7527 13.925V9.325C26.7527 8.00833 27.111 7 27.8277 6.3C28.5444 5.6 29.561 5.25 30.8777 5.25H34.6027C34.9527 5.25 35.1277 5.425 35.1277 5.775V7.5C35.1277 7.68333 35.086 7.81667 35.0027 7.9C34.936 7.96667 34.8027 8 34.6027 8H31.3777C30.861 8 30.486 8.11667 30.2527 8.35C30.036 8.56667 29.9277 8.94167 29.9277 9.475V13.775C29.9277 14.3083 30.036 14.6917 30.2527 14.925C30.486 15.1417 30.861 15.25 31.3777 15.25H34.6027C34.9527 15.25 35.1277 15.425 35.1277 15.775ZM40.681 18H38.556C38.206 18 38.031 17.825 38.031 17.475V0.949999C38.031 0.6 38.206 0.425 38.556 0.425H40.681C41.031 0.425 41.206 0.6 41.206 0.949999V6.6H41.306C41.6727 5.7 42.4893 5.25 43.756 5.25H44.556C47.1727 5.25 48.481 6.60833 48.481 9.325V17.475C48.481 17.825 48.2977 18 47.931 18H45.831C45.481 18 45.306 17.825 45.306 17.475V9.475C45.306 8.94167 45.1893 8.56667 44.956 8.35C44.7393 8.11667 44.3643 8 43.831 8H42.931C41.781 8 41.206 8.63333 41.206 9.9V17.475C41.206 17.825 41.031 18 40.681 18ZM57.6669 18H54.1669C53.8003 18 53.5919 17.825 53.5419 17.475L50.8669 2.45C50.8169 2.1 50.9919 1.925 51.3919 1.925H53.9919C54.3753 1.925 54.5753 2.1 54.5919 2.45L56.0419 14.775H56.2169L58.6169 2.375C58.6669 2.075 58.8419 1.925 59.1419 1.925H61.9419C62.2586 1.925 62.4419 2.06667 62.4919 2.35L64.9419 14.775H65.1419L66.5669 2.475C66.5836 2.10833 66.7836 1.925 67.1669 1.925H69.7669C70.1669 1.925 70.3419 2.10833 70.2919 2.475L67.5919 17.475C67.5419 17.825 67.3503 18 67.0169 18H63.4919C63.1419 18 62.9419 17.825 62.8919 17.475L60.6419 5.75H60.5419L58.2669 17.475C58.2003 17.825 58.0003 18 57.6669 18ZM78.883 18H76.658C75.3413 18 74.3246 17.65 73.608 16.95C72.8913 16.25 72.533 15.2417 72.533 13.925V9.325C72.533 8.00833 72.8913 7 73.608 6.3C74.3246 5.6 75.3413 5.25 76.658 5.25H78.883C80.183 5.25 81.1913 5.60833 81.908 6.325C82.6413 7.025 83.008 8.025 83.008 9.325V13.925C83.008 15.225 82.6413 16.2333 81.908 16.95C81.1913 17.65 80.183 18 78.883 18ZM77.133 15.275H78.408C78.9413 15.275 79.3163 15.1667 79.533 14.95C79.7663 14.7333 79.883 14.3583 79.883 13.825V9.425C79.883 8.89167 79.7663 8.51667 79.533 8.3C79.3163 8.08333 78.9413 7.975 78.408 7.975H77.133C76.5996 7.975 76.2246 8.08333 76.008 8.3C75.7913 8.51667 75.683 8.89167 75.683 9.425V13.825C75.683 14.3583 75.7913 14.7333 76.008 14.95C76.2246 15.1667 76.5996 15.275 77.133 15.275ZM88.9027 18H86.7777C86.4277 18 86.2527 17.825 86.2527 17.475V5.775C86.2527 5.425 86.4277 5.25 86.7777 5.25H88.9027C89.2527 5.25 89.4277 5.425 89.4277 5.775V6.625H89.5277C89.711 6.175 90.036 5.83333 90.5027 5.6C90.9694 5.36667 91.461 5.25 91.9777 5.25H92.8777C93.211 5.25 93.3777 5.425 93.3777 5.775V7.5C93.3777 7.7 93.336 7.84167 93.2527 7.925C93.186 7.99167 93.061 8.01667 92.8777 8H91.1527C90.0027 8 89.4277 8.65 89.4277 9.95V17.475C89.4277 17.825 89.2527 18 88.9027 18ZM98.4935 18H96.3685C96.0185 18 95.8435 17.825 95.8435 17.475V0.949999C95.8435 0.6 96.0185 0.425 96.3685 0.425H98.4935C98.8435 0.425 99.0185 0.6 99.0185 0.949999V17.475C99.0185 17.825 98.8435 18 98.4935 18ZM107.32 18H106.295C105.012 18 104.037 17.65 103.37 16.95C102.72 16.25 102.395 15.2417 102.395 13.925V9.325C102.395 8.00833 102.72 7 103.37 6.3C104.037 5.6 105.012 5.25 106.295 5.25H107.32C107.837 5.25 108.329 5.36667 108.795 5.6C109.262 5.81667 109.587 6.15 109.77 6.6H109.87V0.949999C109.87 0.6 110.045 0.425 110.395 0.425H112.52C112.87 0.425 113.045 0.6 113.045 0.949999V17.475C113.045 17.825 112.87 18 112.52 18H110.395C110.045 18 109.87 17.825 109.87 17.475V16.65H109.77C109.587 17.1 109.262 17.4417 108.795 17.675C108.329 17.8917 107.837 18 107.32 18ZM109.87 13.35V9.9C109.87 8.63333 109.295 8 108.145 8H107.02C106.487 8 106.112 8.11667 105.895 8.35C105.679 8.56667 105.57 8.94167 105.57 9.475V13.775C105.57 14.3083 105.679 14.6917 105.895 14.925C106.112 15.1417 106.487 15.25 107.02 15.25H108.145C109.295 15.25 109.87 14.6167 109.87 13.35Z" fill="#FED7FD"/>
</svg>
