<svg width="15" height="17" viewBox="0 0 15 17" fill="none" xmlns="http://www.w3.org/2000/svg">
<path fill-rule="evenodd" clip-rule="evenodd" d="M2.27686 4.64694C2.27686 4.64694 3.34118 4.51362 4.93711 3.98457C6.53304 3.4554 7.65377 2.91183 8.98475 2.26984C10.3158 1.62786 11.5726 0.784288 11.5726 0.784288L12.2204 0.287598L13.7027 0.35939L12.0541 3.73732C11.9949 3.85857 12.0573 3.95514 12.192 3.95307L14.5178 3.91668C14.6531 3.91449 14.7237 4.01363 14.6747 4.13975L14.1769 5.42165C14.1281 5.54692 13.9783 5.64668 13.8457 5.64448L11.4222 5.60443C11.288 5.60223 11.1299 5.69905 11.0694 5.81981L6.92448 14.1093C6.77369 14.4109 6.92473 14.651 7.26062 14.6455L8.45094 14.6262L7.55072 16.415C7.55072 16.415 5.7736 16.9955 3.99159 16.8527C2.20971 16.71 1.63671 16.4298 1.10119 15.9153C0.565676 15.4008 0.573368 15.4386 0.498034 14.8936C0.422822 14.3486 0.999852 13.287 0.999852 13.287L4.84859 5.61542L1.69666 5.68733L2.27686 4.64694Z" fill="#FED7FD"/>
</svg>
