<svg width="30" height="31" viewBox="0 0 30 31" fill="none" xmlns="http://www.w3.org/2000/svg">
<circle cx="15" cy="15.7871" r="15" fill="#F9587F" fill-opacity="0.6"/>
<path d="M19.1429 7.78711H11.1429C10.8398 7.78711 10.5491 7.90752 10.3347 8.12184C10.1204 8.33617 10 8.62686 10 8.92997V22.6443C10 22.9474 10.1204 23.238 10.3347 23.4524C10.5491 23.6667 10.8398 23.7871 11.1429 23.7871H19.1429C19.446 23.7871 19.7367 23.6667 19.951 23.4524C20.1653 23.238 20.2857 22.9474 20.2857 22.6443V8.92997C20.2857 8.62686 20.1653 8.33617 19.951 8.12184C19.7367 7.90752 19.446 7.78711 19.1429 7.78711ZM11.1429 8.92997H19.1429V19.2157H11.1429V8.92997ZM11.1429 22.6443V20.3585H19.1429V22.6443H11.1429Z" fill="white" stroke="#FED7FD" stroke-width="0.421053"/>
<circle cx="15.4738" cy="21.6828" r="0.421053" fill="white"/>
</svg>
