<svg width="25" height="17" viewBox="0 0 25 17" fill="none" xmlns="http://www.w3.org/2000/svg">
<path d="M17.785 9.39132C19.4013 5.18964 19.6775 1.38406 18.4018 0.89132C17.1261 0.398583 14.7817 3.40528 13.1654 7.60696C11.5491 11.8086 11.273 15.6142 12.5486 16.107C13.8243 16.5997 16.1687 13.593 17.785 9.39132Z" fill="white" stroke="white" stroke-width="1.17561" stroke-linecap="round" stroke-linejoin="round"/>
<path d="M18.0659 8.62696C18.1546 8.88051 18.2485 9.13581 18.3474 9.39288C19.9641 13.5945 22.3082 16.6011 23.5841 16.1086C24.8599 15.616 24.583 11.8105 22.9669 7.60888C21.3508 3.40725 19.0062 0.400031 17.7303 0.892612" fill="white"/>
<path d="M18.0659 8.62696C18.1546 8.88051 18.2485 9.13581 18.3474 9.39288C19.9641 13.5945 22.3082 16.6011 23.5841 16.1086C24.8599 15.616 24.583 11.8105 22.9669 7.60888C21.3508 3.40725 19.0062 0.400031 17.7303 0.892612" stroke="white" stroke-width="1.17561" stroke-linecap="round" stroke-linejoin="round"/>
<path d="M7.5462 9.39132C9.16251 5.18964 9.43864 1.38406 8.16296 0.89132C6.88729 0.398583 4.54288 3.40528 2.92657 7.60696C1.31027 11.8086 1.03414 15.6142 2.30981 16.107C3.58549 16.5997 5.9299 13.593 7.5462 9.39132Z" fill="white" stroke="white" stroke-width="1.17561" stroke-linecap="round" stroke-linejoin="round"/>
<path d="M7.82666 8.62697C7.91544 8.88051 8.00929 9.13582 8.10824 9.39288C9.31664 12.5335 10.931 15.0064 12.2027 15.8493M12.9466 8.20081C12.8762 8.00449 12.803 7.80698 12.7272 7.60831C11.1105 3.40667 8.76641 0.400039 7.49054 0.892621" fill="#D9D9D9"/>
<path d="M7.82666 8.62697C7.91544 8.88051 8.00929 9.13582 8.10824 9.39288C9.31664 12.5335 10.931 15.0064 12.2027 15.8493M12.9466 8.20081C12.8762 8.00449 12.803 7.80698 12.7272 7.60831C11.1105 3.40667 8.76641 0.400039 7.49054 0.892621" stroke="white" stroke-width="1.17561" stroke-linecap="round" stroke-linejoin="round"/>
</svg>
