<svg width="30" height="30" viewBox="0 0 30 30" fill="none" xmlns="http://www.w3.org/2000/svg">
<ellipse cx="15" cy="14.9376" rx="15" ry="14.878" fill="#27C294" fill-opacity="0.6"/>
<path d="M10.75 16.9214C11.1478 16.9214 11.5294 16.7647 11.8107 16.4857C12.092 16.2066 12.25 15.8282 12.25 15.4336C12.25 15.039 12.092 14.6606 11.8107 14.3816C11.5294 14.1026 11.1478 13.9458 10.75 13.9458C10.3522 13.9458 9.97064 14.1026 9.68934 14.3816C9.40804 14.6606 9.25 15.039 9.25 15.4336C9.25 15.8282 9.40804 16.2066 9.68934 16.4857C9.97064 16.7647 10.3522 16.9214 10.75 16.9214V16.9214ZM18.25 16.9214C18.6478 16.9214 19.0294 16.7647 19.3107 16.4857C19.592 16.2066 19.75 15.8282 19.75 15.4336C19.75 15.039 19.592 14.6606 19.3107 14.3816C19.0294 14.1026 18.6478 13.9458 18.25 13.9458C17.8522 13.9458 17.4706 14.1026 17.1893 14.3816C16.908 14.6606 16.75 15.039 16.75 15.4336C16.75 15.8282 16.908 16.2066 17.1893 16.4857C17.4706 16.7647 17.8522 16.9214 18.25 16.9214V16.9214ZM14.5 13.2019C14.8978 13.2019 15.2794 13.0452 15.5607 12.7662C15.842 12.4872 16 12.1087 16 11.7141C16 11.3196 15.842 10.9411 15.5607 10.6621C15.2794 10.3831 14.8978 10.2263 14.5 10.2263C14.1022 10.2263 13.7206 10.3831 13.4393 10.6621C13.158 10.9411 13 11.3196 13 11.7141C13 12.1087 13.158 12.4872 13.4393 12.7662C13.7206 13.0452 14.1022 13.2019 14.5 13.2019ZM14.5 20.6409C14.8978 20.6409 15.2794 20.4842 15.5607 20.2052C15.842 19.9261 16 19.5477 16 19.1531C16 18.7585 15.842 18.3801 15.5607 18.1011C15.2794 17.8221 14.8978 17.6653 14.5 17.6653C14.1022 17.6653 13.7206 17.8221 13.4393 18.1011C13.158 18.3801 13 18.7585 13 19.1531C13 19.5477 13.158 19.9261 13.4393 20.2052C13.7206 20.4842 14.1022 20.6409 14.5 20.6409Z" stroke="white" stroke-width="0.7" stroke-linecap="round" stroke-linejoin="round"/>
<path d="M7 15.4337V22.8726M7 15.4337C7 19.5422 10.3578 22.8726 14.5 22.8726C18.6422 22.8726 22 19.5422 22 15.4337C22 11.3251 18.6422 7.99469 14.5 7.99469C10.3578 7.99469 7 11.3251 7 15.4337Z" stroke="white" stroke-width="0.7" stroke-linecap="round" stroke-linejoin="round"/>
</svg>
