<svg width="7" height="14" viewBox="0 0 7 14" fill="none" xmlns="http://www.w3.org/2000/svg">
<path d="M1.47517 0.315719C1.61656 0.315239 1.75627 0.346395 1.88402 0.406898C2.01177 0.4674 2.12432 0.555713 2.21339 0.665343L6.7847 6.33491C6.9239 6.50399 7 6.71607 7 6.93494C7 7.15381 6.9239 7.36589 6.7847 7.53497L2.0525 13.2045C1.89185 13.3975 1.661 13.5189 1.41074 13.5419C1.16048 13.5649 0.911298 13.4878 0.718019 13.3274C0.52474 13.167 0.403194 12.9365 0.380121 12.6866C0.357047 12.4368 0.434334 12.188 0.594982 11.995L4.82557 6.93022L0.736948 1.8654C0.621214 1.7267 0.547698 1.5578 0.525097 1.37869C0.502497 1.19958 0.531758 1.01776 0.609419 0.854729C0.687079 0.691704 0.80989 0.5543 0.963317 0.458777C1.11674 0.363254 1.29437 0.31361 1.47517 0.315719Z" fill="white"/>
</svg>
