<svg width="30" height="31" viewBox="0 0 30 31" fill="none" xmlns="http://www.w3.org/2000/svg">
<circle cx="15" cy="15.7871" r="15" fill="#FEC28E" fill-opacity="0.6"/>
<path d="M14.9996 10.9863L12.5996 14.5863H14.1996V16.9863L16.5996 13.3863H14.9996V10.9863Z" fill="white"/>
<path fill-rule="evenodd" clip-rule="evenodd" d="M20.1639 13.8963C20.0425 14.9265 19.6284 15.9002 18.9707 16.7023C18.5859 17.1723 17.6079 18.5151 17.3999 19.3871H11.7999C11.5919 18.5143 10.6127 17.1715 10.2279 16.7011C9.57045 15.8987 9.15678 14.9246 9.03587 13.8943C8.91665 12.8662 9.09607 11.8255 9.55267 10.8967C10.0136 9.9608 10.73 9.17448 11.6191 8.62871C12.5159 8.0776 13.5481 7.78626 14.6007 7.78711C15.6559 7.78711 16.6895 8.07911 17.5823 8.62991C18.4711 9.17589 19.1873 9.96235 19.6479 10.8983C20.1043 11.8273 20.2834 12.8682 20.1639 13.8963ZM16.8331 18.5871H12.3663C12.1959 18.1939 11.9683 17.7999 11.7563 17.4651C11.4773 17.0251 11.1739 16.6011 10.8475 16.1951C10.2867 15.511 9.93388 14.6804 9.83067 13.8019C9.72905 12.9264 9.88181 12.0401 10.2707 11.2491C10.6651 10.4488 11.2781 9.77644 12.0387 9.30991C12.8093 8.8365 13.6962 8.58628 14.6007 8.58711C15.5087 8.58711 16.3967 8.83871 17.1627 9.31111C17.923 9.77773 18.5357 10.4501 18.9299 11.2503C19.3185 12.0415 19.471 12.9279 19.3691 13.8035C19.2655 14.6818 18.9123 15.5121 18.3515 16.1959C18.0249 16.6017 17.7216 17.0257 17.4431 17.4659C17.2311 17.8007 17.0039 18.1939 16.8335 18.5871H16.8331Z" fill="white"/>
<path d="M11.7998 20.5875C11.7998 20.4814 11.8419 20.3797 11.917 20.3047C11.992 20.2296 12.0937 20.1875 12.1998 20.1875H16.9998C17.1059 20.1875 17.2076 20.2296 17.2826 20.3047C17.3577 20.3797 17.3998 20.4814 17.3998 20.5875C17.3998 20.6936 17.3577 20.7953 17.2826 20.8703C17.2076 20.9454 17.1059 20.9875 16.9998 20.9875H12.1998C12.0937 20.9875 11.992 20.9454 11.917 20.8703C11.8419 20.7953 11.7998 20.6936 11.7998 20.5875Z" fill="white"/>
<path fill-rule="evenodd" clip-rule="evenodd" d="M11.7999 21.7871H17.3999V22.9871C17.3999 23.1993 17.3156 23.4028 17.1656 23.5528C17.0155 23.7028 16.812 23.7871 16.5999 23.7871H12.5999C12.3877 23.7871 12.1842 23.7028 12.0342 23.5528C11.8842 23.4028 11.7999 23.1993 11.7999 22.9871V21.7871ZM12.5999 22.5871H16.5999V22.9871H12.5999V22.5871Z" fill="white"/>
</svg>
