<svg width="30" height="31" viewBox="0 0 30 31" fill="none" xmlns="http://www.w3.org/2000/svg">
<circle cx="15" cy="15.0742" r="15" fill="#7EFC8A" fill-opacity="0.6"/>
<path d="M17.5446 12.1227V10.9224C17.5446 10.5484 17.4709 10.178 17.3278 9.83246C17.1847 9.4869 16.9749 9.17292 16.7104 8.90844C16.4459 8.64396 16.1319 8.43416 15.7864 8.29103C15.4408 8.14789 15.0704 8.07422 14.6964 8.07422C14.3224 8.07422 13.952 8.14789 13.6064 8.29103C13.2609 8.43416 12.9469 8.64396 12.6824 8.90844C12.4179 9.17292 12.2081 9.4869 12.065 9.83246C11.9219 10.178 11.8482 10.5484 11.8482 10.9224V13.7706C11.8482 13.8785 11.8911 13.982 11.9674 14.0583C12.0437 14.1346 12.1472 14.1775 12.2551 14.1775C12.363 14.1775 12.4665 14.1346 12.5428 14.0583C12.6191 13.982 12.662 13.8785 12.662 13.7706V12.9365H15.9171V12.1227H12.662V10.9224C12.662 10.3829 12.8763 9.86539 13.2578 9.48386C13.6394 9.10233 14.1568 8.88799 14.6964 8.88799C15.236 8.88799 15.7534 9.10233 16.135 9.48386C16.5165 9.86539 16.7308 10.3829 16.7308 10.9224V13.7503C16.7308 13.8582 16.7737 13.9617 16.85 14.038C16.9263 14.1143 17.0298 14.1572 17.1377 14.1572C17.2456 14.1572 17.3491 14.1143 17.4254 14.038C17.5017 13.9617 17.5446 13.8582 17.5446 13.7503V12.9365H19.579V20.2604H9.81377V12.9365H11.0344V12.1227H9V20.2971C9 20.5032 9.08188 20.7009 9.22762 20.8466C9.37337 20.9923 9.57104 21.0742 9.77715 21.0742H19.6156C19.8218 21.0742 20.0194 20.9923 20.1652 20.8466C20.3109 20.7009 20.3928 20.5032 20.3928 20.2971V12.1227H17.5446Z" fill="white"/>
</svg>
